<svg width="21" height="16" viewBox="0 0 21 16" fill="none" xmlns="http://www.w3.org/2000/svg">
<rect width="21" height="16" fill="#F4F4F4"/>
<g id="About Us">
<g clip-path="url(#clip0_1131_2562)">
<rect x="-1484" y="-4771" width="1728" height="8171" rx="40" fill="white"/>
<g id="People">
<g id="Group 3685">
<g id="Group">
<g id="Group_2">
<path id="Vector" d="M20.4686 7.6871L13.6547 0.87308C13.4099 0.587259 12.9797 0.55394 12.6939 0.79877C12.4081 1.04354 12.3748 1.47371 12.6196 1.75953C12.6424 1.78617 12.6673 1.81106 12.6939 1.83384L18.3427 7.48947H0.934797C0.558504 7.48947 0.253418 7.79455 0.253418 8.17091C0.253418 8.54726 0.558504 8.85229 0.934797 8.85229H18.3427L12.6939 14.5011C12.4081 14.7458 12.3748 15.176 12.6196 15.4618C12.8644 15.7476 13.2945 15.781 13.5804 15.5361C13.607 15.5133 13.6319 15.4885 13.6547 15.4618L20.4687 8.6478C20.7328 8.38212 20.7328 7.9529 20.4686 7.6871Z" fill="#00524C"/>
</g>
</g>
</g>
</g>
</g>
</g>
<defs>
<clipPath id="clip0_1131_2562">
<rect x="-1484" y="-4771" width="1728" height="8171" rx="40" fill="white"/>
</clipPath>
</defs>
</svg>
