<svg width="50" height="50" viewBox="0 0 50 50" fill="none" xmlns="http://www.w3.org/2000/svg">
<path d="M28.14 0C28.14 1.83271 28.14 3.66305 28.14 5.53132C27.1903 5.53132 26.2406 5.53132 25.2054 5.53132C25.2054 3.68676 25.2054 1.84219 25.2054 0C26.1836 0 27.1618 0 28.14 0Z" fill="white"/>
<path d="M22.2779 34.179C22.2779 35.1819 22.2779 36.1184 22.2779 37.0881C22.456 37.0952 22.615 37.1094 22.7741 37.1094C25.7894 37.1118 28.8024 37.1118 31.8178 37.1094C34.2989 37.107 35.9632 35.8054 36.5996 33.4037C36.6494 33.2116 36.8251 33.0172 36.9961 32.8987C38.5441 31.8175 40.0921 30.7364 41.6639 29.6885C42.3477 29.2309 42.9318 28.6927 43.4684 28.0715C44.4442 26.9406 45.5815 25.9899 46.987 25.4256C48.0246 25.0083 49.0455 24.9893 50 25.7385C49.9098 25.8926 49.8338 26.0325 49.7483 26.17C47.7112 29.4229 45.6788 32.6782 43.6322 35.9263C43.4897 36.1539 43.295 36.3673 43.079 36.5238C40.0328 38.7572 36.9842 40.9835 33.9237 43.2002C33.729 43.3401 33.4536 43.435 33.2162 43.435C28.4581 43.4492 23.7001 43.4445 18.942 43.4468C18.6856 43.4468 18.498 43.4255 18.3508 43.1481C16.2662 39.248 14.1673 35.3573 12.0732 31.4619C12.0519 31.4192 12.04 31.3718 12.0162 31.3102C13.3102 29.8497 14.8891 28.8824 16.8408 28.6002C18.866 28.3086 20.8723 28.3536 22.786 29.1882C23.5125 29.5059 24.1464 29.935 24.5453 30.6676C24.6237 30.8099 24.911 30.9071 25.1033 30.9095C27.271 30.9261 29.4387 30.919 31.6041 30.9213C31.8154 30.9213 32.0291 30.9213 32.238 30.9403C33.0904 31.0185 33.7196 31.6942 33.729 32.5241C33.7362 33.3871 33.1117 34.0817 32.2427 34.1647C32.0647 34.1813 31.8842 34.1766 31.7062 34.1766C28.7573 34.1766 25.8084 34.1766 22.8572 34.1766C22.6791 34.179 22.5034 34.179 22.2779 34.179Z" fill="white"/>
<path d="M35.9395 30.0488C35.1679 28.9843 34.2015 28.3039 32.955 28.0786C32.5728 28.0099 32.1786 27.998 31.7893 27.9956C30.0632 27.9862 28.3347 27.998 26.6086 27.9838C26.4139 27.9814 26.167 27.9411 26.0316 27.8202C24.4527 26.4214 22.5533 25.8144 20.5067 25.601C18.3271 25.3734 16.1807 25.5323 14.0985 26.272C13.6735 26.4237 13.2604 26.611 12.7903 26.8031C12.7903 24.5341 12.7903 22.3055 12.7903 20.0104C12.9755 20.0104 13.1654 20.0104 13.3553 20.0104C16.6295 20.0104 19.906 20.0033 23.1801 20.0199C23.541 20.0223 23.7238 19.9037 23.89 19.5884C24.7281 17.9904 25.5924 16.4067 26.4471 14.8182C26.5231 14.6783 26.6038 14.5408 26.713 14.3535C27.6651 16.1221 28.5982 17.8339 29.5005 19.5576C29.6856 19.9109 29.897 20.0199 30.2887 20.0175C33.5462 20.0009 36.8061 20.0081 40.0636 20.0081C40.2417 20.0081 40.4174 20.0081 40.6382 20.0081C40.6477 20.1906 40.6619 20.3471 40.6619 20.5036C40.6643 22.4548 40.6572 24.4085 40.6691 26.3597C40.6714 26.6632 40.6002 26.86 40.3319 27.0402C38.8741 28.0241 37.4306 29.027 35.9395 30.0488Z" fill="white"/>
<path d="M0 33.1642C2.52624 31.846 5.01448 30.5491 7.5336 29.238C10.5466 34.8333 13.5334 40.3812 16.5416 45.9647C13.9608 47.3114 11.4108 48.6415 8.80384 50C5.87397 44.3928 2.94886 38.8022 0 33.1642Z" fill="white"/>
<path d="M10.8837 17.0824C11.6648 15.629 12.3961 14.2586 13.144 12.8953C13.1986 12.7981 13.3672 12.7057 13.4835 12.7057C17.0307 12.7009 20.5803 12.7057 24.1275 12.7128C24.1393 12.7128 24.1512 12.727 24.2106 12.7673C23.8734 13.4004 23.5315 14.0381 23.1896 14.6759C22.8145 15.3777 22.4488 16.0842 22.0523 16.7741C21.974 16.914 21.7745 17.0705 21.6297 17.0705C18.0802 17.0871 14.533 17.0824 10.8837 17.0824Z" fill="white"/>
<path d="M42.4925 17.0824C39.197 17.0824 35.987 17.0373 32.7793 17.1108C31.7964 17.1322 31.2598 16.8619 30.8704 15.9562C30.4003 14.8608 29.764 13.8342 29.1681 12.7223C29.396 12.7128 29.5503 12.6986 29.7046 12.6986C33.0286 12.6986 36.3526 12.7033 39.6766 12.6891C40.028 12.6867 40.2275 12.7744 40.396 13.1016C41.0038 14.2871 41.6497 15.4536 42.2788 16.6272C42.3477 16.7552 42.4023 16.888 42.4925 17.0824Z" fill="white"/>
<path d="M20.1292 7.19807C19.4857 5.44597 18.8613 3.74366 18.2107 1.97496C19.1225 1.63829 20.0128 1.31111 20.9625 0.960216C21.6036 2.7052 22.2352 4.43122 22.881 6.19043C21.9597 6.5271 21.0789 6.84954 20.1292 7.19807Z" fill="white"/>
<path d="M35.1987 1.96785C34.5577 3.71758 33.9332 5.41989 33.2851 7.19332C32.371 6.8614 31.4806 6.53658 30.5309 6.19043C31.1696 4.44545 31.7964 2.73128 32.4446 0.962587C33.3587 1.29688 34.249 1.6217 35.1987 1.96785Z" fill="white"/>
</svg>
