<svg width="34" height="34" viewBox="0 0 34 34" fill="none" xmlns="http://www.w3.org/2000/svg">
<path d="M0.000887179 33.2511C0.164128 32.9582 0.407215 32.8646 0.723938 32.8721C1.43102 32.8889 2.1381 32.8777 2.88777 32.8777C2.89487 32.7186 2.90462 32.5847 2.90462 32.4499C2.90551 30.4639 2.90462 28.4778 2.90551 26.4927C2.90551 25.8862 3.06166 25.714 3.62768 25.7131C5.14475 25.7102 6.66094 25.7102 8.17802 25.7131C8.7396 25.714 8.90107 25.8937 8.90107 26.4964C8.90196 28.4825 8.90107 30.4686 8.90107 32.4537C8.90107 32.58 8.90107 32.7064 8.90107 32.8543C9.37571 32.8543 9.82285 32.8543 10.3001 32.8543C10.3001 32.6952 10.3001 32.5576 10.3001 32.42C10.3001 29.0085 10.3001 25.5979 10.3001 22.1864C10.3001 21.5191 10.4554 21.3525 11.08 21.3525C12.5633 21.3516 14.0467 21.3516 15.5301 21.3525C16.144 21.3525 16.3001 21.5154 16.3001 22.1574C16.301 25.5802 16.301 29.0029 16.301 32.4256C16.301 32.5623 16.301 32.698 16.301 32.8552C16.7819 32.8552 17.2193 32.8552 17.709 32.8552C17.709 32.697 17.709 32.5501 17.709 32.4031C17.709 27.5671 17.709 22.7312 17.709 17.8942C17.709 17.1296 17.8341 16.9976 18.5571 16.9976C20.0298 16.9976 21.5017 16.9966 22.9744 16.9976C23.5351 16.9985 23.7099 17.1829 23.7099 17.7725C23.7108 22.6553 23.7099 27.5381 23.7099 32.4209C23.7099 32.5585 23.7099 32.6961 23.7099 32.8543C24.1792 32.8543 24.6174 32.8543 25.1089 32.8543C25.1089 32.7064 25.1089 32.5613 25.1089 32.4153C25.1089 26.1071 25.1089 19.7989 25.1089 13.4906C25.1089 12.7962 25.2518 12.6445 25.903 12.6445C27.3642 12.6445 28.8253 12.6445 30.2865 12.6445C30.9732 12.6445 31.1045 12.7812 31.1045 13.4962C31.1045 19.7923 31.1045 26.0893 31.1045 32.3854C31.1045 32.5342 31.1045 32.6821 31.1045 32.8749C31.6173 32.8749 32.0902 32.8739 32.563 32.8749C32.8842 32.8758 33.2062 32.8655 33.5256 32.888C33.8237 32.9076 33.9914 33.1098 34.0011 33.4158C34.0109 33.7247 33.8432 33.9175 33.5558 33.9774C33.4591 33.998 33.3579 33.9952 33.2586 33.9952C22.4208 33.9961 11.583 33.9952 0.745231 33.9999C0.417861 33.9999 0.159692 33.9166 0 33.5983C0.000887179 33.4851 0.000887179 33.3681 0.000887179 33.2511Z" fill="white"/>
<path d="M23.0953 5.22363C22.2871 4.57783 21.5046 3.94888 20.7185 3.32554C20.5065 3.15801 20.3202 2.98392 20.369 2.66664C20.4213 2.3297 20.6653 2.23611 20.9332 2.15936C23.3739 1.45834 25.8136 0.752644 28.2542 0.0506899C28.8114 -0.109356 29.09 0.109654 29.0944 0.706783C29.1157 3.39293 29.1423 6.07814 29.1459 8.76429C29.1459 8.97955 29.0394 9.24723 28.8948 9.39604C28.6996 9.59727 28.4441 9.50274 28.2312 9.33146C27.6439 8.85788 27.053 8.38804 26.4355 7.8948C26.1374 8.2776 25.8571 8.64823 25.5661 9.00857C22.2436 13.1314 18.2717 16.3332 13.5217 18.4185C10.8868 19.5753 8.1481 20.2726 5.28606 20.3671C5.145 20.3718 4.98974 20.3737 4.86377 20.3185C4.63576 20.2192 4.54172 20.0087 4.57188 19.7485C4.60471 19.4658 4.77682 19.3207 5.02789 19.2674C5.59125 19.1476 6.15905 19.0512 6.71708 18.9099C10.5515 17.9393 13.8873 15.9673 16.8442 13.2512C19.2937 11.0012 21.3076 8.36651 22.9835 5.43702C23.019 5.37806 23.0483 5.31535 23.0953 5.22363Z" fill="white"/>
</svg>
