<svg width="21" height="36" viewBox="0 0 21 36" fill="none" xmlns="http://www.w3.org/2000/svg">
<path d="M17.1918 35.3078C12.5306 35.3078 7.87014 35.3078 3.20896 35.3078C0.784095 34.689 0.107085 33.0481 0.199537 31.0666C0.191406 29.5385 0.214096 27.9284 0.214096 26.3589C0.214096 19.0602 0.240303 11.7616 0.198081 4.46303C0.186433 2.34828 1.65402 0.71108 3.76512 0.703073C8.05359 0.687057 12.3428 0.690697 16.632 0.703073C17.7188 0.705985 18.655 1.10418 19.3749 1.94935C20.0075 2.69188 20.1917 3.5669 20.191 4.51908C20.1837 13.5248 20.1866 22.5297 20.1859 31.5354C20.1859 31.7313 20.1815 31.9285 20.1648 32.1236C20.0578 33.3517 19.4477 34.2639 18.3842 34.855C18.0158 35.0595 17.5907 35.16 17.1918 35.3078ZM19.3611 5.74207C13.2163 5.74207 7.13999 5.74207 1.04616 5.74207C1.04616 13.524 1.04616 21.2616 1.04616 29.0225C1.51643 29.0225 1.95248 29.0225 2.46133 29.0225C2.46133 28.3098 2.46133 27.635 2.46133 26.9754C4.67436 26.9754 6.81531 26.9754 9.00213 26.9754C9.00213 27.6845 9.00213 28.344 9.00213 29.0276C9.64565 29.0276 10.2404 29.0276 10.9043 29.0276C10.9043 28.3178 10.9043 27.6408 10.9043 26.958C13.2899 26.958 15.6063 26.958 17.9947 26.958C17.9947 27.6772 17.9947 28.3506 17.9947 29.0283C18.4883 29.0283 18.909 29.0283 19.3604 29.0283C19.3611 21.258 19.3611 13.5211 19.3611 5.74207ZM19.3546 29.9281C13.2171 29.9281 7.14363 29.9281 1.04325 29.9281C1.04325 30.6641 0.981374 31.3709 1.05636 32.0639C1.2085 33.4813 2.34704 34.4655 3.77532 34.4677C8.05868 34.4742 12.3413 34.4742 16.6247 34.4677C18.0559 34.4655 19.1835 33.4908 19.3415 32.0639C19.4179 31.3716 19.3546 30.6641 19.3546 29.9281ZM19.3298 4.84303C19.5722 3.05732 18.4577 1.55625 16.8365 1.5446C12.4119 1.51257 7.98734 1.5133 3.56275 1.5446C1.92045 1.55625 0.677084 3.27717 1.11532 4.84303C7.17274 4.84303 13.236 4.84303 19.3298 4.84303Z" fill="white"/>
<path d="M0.351562 5.63721C6.90143 5.63721 13.406 5.63721 19.9669 5.63721C19.9669 13.7062 19.9669 21.749 19.9669 29.868C13.4504 29.868 6.93009 29.868 0.351562 29.868C0.351562 21.8056 0.351562 13.741 0.351562 5.63721ZM9.60588 9.10978C9.60588 10.548 9.6253 11.8948 9.59941 13.2394C9.57907 14.2904 8.85511 14.9235 8.17183 14.4253C7.86948 14.2044 7.64296 13.5908 7.61892 13.1383C7.5468 11.8099 7.59303 10.4718 7.59303 9.12501C6.92824 9.12501 6.37071 9.12501 5.76972 9.12501C5.76972 10.6905 5.72903 12.2092 5.78359 13.7225C5.82334 14.8387 6.51772 15.882 7.33969 16.0408C8.03869 16.1768 8.77004 16.1822 9.47829 16.118C10.5259 16.0223 11.2415 15.2238 11.3414 14.0706C11.4828 12.4333 11.3774 10.7677 11.3774 9.11087C10.7783 9.10978 10.2392 9.10978 9.60588 9.10978ZM7.82418 19.3262C7.82418 20.0595 7.82418 20.7013 7.82418 21.3432C7.82418 21.9883 7.8288 22.6324 7.8214 23.2775C7.81308 23.9944 7.63186 24.5547 6.91345 24.6015C6.23017 24.6461 5.89639 24.2686 5.88622 23.3645C5.8705 22.0275 5.88252 20.6905 5.88252 19.3295C5.23807 19.3295 4.7018 19.3295 4.14427 19.3295C4.14427 20.969 4.07585 22.5747 4.17108 24.1674C4.22656 25.091 4.773 25.8232 5.56538 26.0288C6.23109 26.2018 6.94951 26.2594 7.62724 26.1724C8.74878 26.0288 9.48199 25.2052 9.56797 23.8998C9.66598 22.3952 9.59109 20.8754 9.59109 19.3262C8.99842 19.3262 8.46215 19.3262 7.82418 19.3262ZM16.4008 25.9907C15.8571 25.0051 15.2959 24.0455 14.7966 23.0425C14.6829 22.8151 14.6856 22.3789 14.7975 22.1482C15.2459 21.217 15.7591 20.3293 16.337 19.261C15.5751 19.3001 14.8474 19.0989 14.3972 19.4274C13.9247 19.7712 13.7176 20.623 13.3727 21.2953C12.1448 19.0967 12.0441 19.0314 10.438 19.422C10.9271 20.2988 11.3839 21.1615 11.8822 21.9905C12.13 22.4017 12.1504 22.7074 11.8887 23.1393C11.3201 24.076 10.8088 25.0606 10.242 26.0843C12.1411 26.2507 12.1411 26.2507 13.0519 24.5068C13.1323 24.3534 13.2248 24.2098 13.4041 23.9041C13.9395 25.6469 14.7309 26.7065 16.4008 25.9907ZM12.7745 9.12175C12.7745 11.4575 12.7745 13.7442 12.7745 16.0506C13.3856 16.0506 13.9423 16.0506 14.5192 16.0506C14.5192 13.7105 14.5192 11.4216 14.5192 9.12175C13.9108 9.12175 13.3524 9.12175 12.7745 9.12175Z" fill="white"/>
<path d="M10.2426 32.505C9.63762 32.505 9.02977 32.537 8.4292 32.4854C8.24575 32.4693 8.08268 32.2218 7.91016 32.0799C8.07249 31.9445 8.23192 31.697 8.39717 31.6926C9.62598 31.6591 10.8562 31.6591 12.0843 31.6926C12.251 31.697 12.4119 31.9437 12.5757 32.0777C12.4032 32.2204 12.2394 32.4693 12.0552 32.4854C11.4554 32.5378 10.8475 32.505 10.2426 32.505Z" fill="white"/>
<path d="M9.51562 3.36407C9.59206 2.75258 9.82647 2.53054 10.2414 2.55166C10.6287 2.57131 10.8544 2.8028 10.8507 3.19372C10.8464 3.61231 10.5865 3.90204 10.1934 3.83215C9.9211 3.78483 9.69107 3.49365 9.51562 3.36407Z" fill="white"/>
</svg>
