<svg width="34" height="34" viewBox="0 0 34 34" fill="none" xmlns="http://www.w3.org/2000/svg">
<path d="M22.0526 27.6094C22.5702 28.9235 23.0449 30.1395 23.5262 31.3518C24.2349 33.1334 23.7437 33.9988 22.0114 33.9988C18.5946 33.9988 15.1761 34.0025 11.7593 33.9969C10.3154 33.995 9.79951 33.0655 10.3945 31.5478C10.8939 30.2753 11.4033 29.0045 11.9587 27.6075C11.5664 27.6075 11.3027 27.6075 11.039 27.6075C8.35893 27.6075 5.68052 27.6188 3.00046 27.6037C1.19562 27.5943 0.00887643 26.2463 0.00557992 24.2045C-0.00101309 17.2307 -0.00266135 10.2569 0.00557992 3.28307C0.00887643 1.38643 1.17749 0.0120325 2.82904 0.0101472C12.262 -0.00305004 21.6933 -0.00305004 31.1263 0.0082619C32.819 0.0101472 33.9926 1.38643 33.9942 3.33963C34.0025 10.2512 34.0008 17.1628 33.9959 24.0744C33.9942 26.284 32.8273 27.6 30.8625 27.6075C28.2385 27.6169 25.6129 27.6094 22.9888 27.6094C22.7185 27.6094 22.4466 27.6094 22.0526 27.6094ZM16.9842 24.7324C21.4955 24.7324 26.0068 24.7173 30.5181 24.7475C31.2449 24.7531 31.5169 24.5514 31.512 23.6502C31.479 17.0836 31.4823 10.5152 31.5103 3.94859C31.5136 3.08134 31.2944 2.83436 30.5345 2.83625C21.512 2.86453 12.4895 2.86641 3.46691 2.83436C2.63949 2.83059 2.47631 3.15864 2.47961 4.024C2.50763 10.5284 2.51093 17.0327 2.47631 23.539C2.47137 24.4911 2.69883 24.7645 3.53284 24.755C8.0161 24.7098 12.4993 24.7324 16.9842 24.7324Z" fill="white"/>
<path d="M18.2126 8.07743C19.0329 8.79444 19.6465 8.60869 20.1336 7.66134C20.3739 7.19509 20.6735 7.1988 21.0565 7.53874C22.3783 8.71085 22.3879 8.69785 21.2279 10.4254C21.4266 10.8285 21.6333 11.2501 21.8415 11.6736C21.9297 11.6829 22.0098 11.7145 22.0819 11.6978C23.9164 11.2873 23.5703 11.2594 23.9597 13.2266C24.0878 13.8767 23.9148 14.081 23.3797 14.2259C22.9631 14.3374 22.3382 14.0978 22.2149 15.0005C22.1251 15.6637 22.1476 16.1318 22.7484 16.3844C23.5078 16.7039 23.6584 17.224 23.1361 17.98C22.9887 18.1937 22.899 18.4593 22.7868 18.7026C22.5673 19.1782 22.2597 19.3212 21.888 18.9534C21.151 18.2234 20.5277 18.3478 19.9333 19.3676C20.0214 19.6574 20.1112 20.0698 20.265 20.4469C20.5149 21.0543 20.3275 21.3664 19.8116 21.5261C19.6337 21.58 19.4623 21.6673 19.2876 21.7397C18.275 22.1632 18.243 22.1763 17.9017 20.9633C17.7447 20.406 17.5364 20.1905 17.0141 20.2035C16.527 20.2147 16.2595 20.3261 16.0928 20.9131C15.7323 22.1707 15.6955 22.1725 14.6605 21.7212C13.3306 21.1435 13.4316 21.3478 13.9219 19.8952C14.1237 19.297 13.8674 19.0871 13.5678 18.7584C13.2521 18.411 13.0006 18.3311 12.6016 18.6116C12.2652 18.8475 11.6179 19.18 11.5089 19.0426C11.0908 18.5169 10.8136 17.8314 10.5396 17.1739C10.4979 17.0754 10.7222 16.7633 10.8761 16.6352C11.1741 16.3844 11.5105 16.1931 11.8198 15.9832C11.7653 14.5194 11.7717 14.4823 10.5797 14.2185C10.0461 14.0996 9.9596 13.8321 10.0141 13.2711C10.1967 11.382 10.1823 11.3783 12.0809 11.6718C12.2892 11.278 12.5055 10.8656 12.717 10.4644C11.6547 8.70342 11.6547 8.70342 12.6721 7.74493C13.3627 7.09478 13.3627 7.09478 14.5275 8.54739C15.7323 8.23903 15.7532 8.24089 15.774 6.83844C15.7836 6.24774 15.9599 6.03226 16.4758 6.01554C18.086 5.95982 18.086 5.93938 18.2126 8.07743ZM16.974 11.5473C15.7532 11.5511 14.8159 12.6544 14.8271 14.0736C14.8383 15.4371 15.7788 16.5404 16.9436 16.5572C18.1549 16.5739 19.1322 15.4612 19.1322 14.0643C19.1338 12.6414 18.1933 11.5436 16.974 11.5473Z" fill="white"/>
</svg>
