<svg width="28" height="36" viewBox="0 0 28 36" fill="none" xmlns="http://www.w3.org/2000/svg">
<g clip-path="url(#clip0_548_2768)">
<path d="M3.6656 35.5861C3.46277 35.5266 3.2583 35.4748 3.05872 35.4066C1.52157 34.8878 0.557893 33.4515 0.55382 31.6517C0.548118 28.8999 0.552191 26.148 0.552191 23.3962C0.552191 17.2382 0.551376 11.0811 0.553005 4.92318C0.553005 3.27191 1.21528 2.02288 2.63187 1.30643C3.05954 1.08977 3.56948 0.956842 4.04276 0.95339C8.16221 0.926631 12.2817 0.923178 16.4011 0.944758C18.2307 0.954253 19.7556 2.51058 19.8697 4.45102C19.9169 5.25637 19.8778 6.06776 19.8778 6.89556C19.1976 6.89556 18.5419 6.89556 17.856 6.89556C17.856 6.34398 17.856 5.79672 17.856 5.22012C12.7663 5.22012 7.70603 5.22012 2.62291 5.22012C2.62291 12.9102 2.62291 20.6064 2.62291 28.3198C8.37075 28.3198 14.1104 28.3198 19.8892 28.3198C19.8892 28.5399 19.8917 28.7506 19.8884 28.9612C19.8721 30.0988 19.9316 31.2452 19.8184 32.3725C19.6562 33.9849 18.4392 35.2417 16.9379 35.524C16.8768 35.5352 16.8198 35.5645 16.7603 35.5861C12.3957 35.5861 8.03024 35.5861 3.6656 35.5861ZM11.8475 31.9478C11.841 30.9974 11.1111 30.2335 10.2134 30.237C9.32057 30.2404 8.58825 31.0173 8.58743 31.9616C8.58662 32.9171 9.34012 33.7035 10.2435 33.6906C11.1388 33.6776 11.854 32.8999 11.8475 31.9478Z" fill="white"/>
<path d="M25.8079 23.0042C25.2271 23.624 24.6894 24.1988 24.129 24.7979C23.6712 24.3119 23.193 23.8182 22.7328 23.3063C22.578 23.1345 22.4762 23.1406 22.2766 23.2433C21.6208 23.5808 20.9464 23.8752 20.2132 24.217C20.2132 24.9162 20.2132 25.7232 20.2132 26.5484C19.4173 26.5484 18.6557 26.5484 17.859 26.5484C17.859 25.7353 17.859 24.93 17.859 24.2351C17.0794 23.8596 16.3715 23.5109 15.6555 23.1829C15.5854 23.1509 15.4388 23.2131 15.3728 23.2813C14.8857 23.7845 14.4092 24.2998 13.9408 24.7996C13.3828 24.198 12.8402 23.6136 12.2757 23.0059C12.7164 22.5398 13.1816 22.0314 13.6654 21.5446C13.83 21.3788 13.8169 21.2692 13.7216 21.0603C13.4056 20.3646 13.1278 19.649 12.8109 18.8834C12.1511 18.8834 11.3976 18.8834 10.6172 18.8834C10.6172 18.0435 10.6172 17.2286 10.6172 16.3853C11.3723 16.3853 12.1234 16.3853 12.8777 16.3853C13.0154 15.9373 13.1278 15.5057 13.2826 15.0922C13.4039 14.7694 13.5636 14.4604 13.7355 14.1635C13.8389 13.9848 13.83 13.8795 13.6866 13.7336C13.197 13.2355 12.7213 12.7219 12.2659 12.242C12.8296 11.6395 13.3746 11.0568 13.9302 10.463C14.3978 10.955 14.8751 11.4669 15.3663 11.9632C15.4364 12.034 15.5969 12.0866 15.6767 12.0504C16.3846 11.7284 17.0835 11.3857 17.8435 11.0206C17.8435 10.3318 17.8435 9.53333 17.8435 8.70898C18.6353 8.70898 19.4051 8.70898 20.201 8.70898C20.201 9.51261 20.201 10.3093 20.201 11.1207C20.5407 11.2295 20.869 11.3149 21.1818 11.441C21.4987 11.5687 21.8082 11.7215 22.1063 11.8933C22.5316 12.1384 22.5259 12.1505 22.881 11.7733C23.3006 11.3288 23.7193 10.8833 24.1225 10.4561C24.6894 11.0586 25.2352 11.6395 25.8006 12.2403C25.3517 12.7116 24.889 13.2088 24.4125 13.6904C24.2512 13.8536 24.2276 13.9658 24.3367 14.1988C24.6601 14.8894 24.9322 15.6067 25.2475 16.3663C25.913 16.3663 26.6673 16.3663 27.4493 16.3663C27.4493 17.2019 27.4493 18.0167 27.4493 18.8687C26.6877 18.8687 25.9268 18.8687 25.2409 18.8687C24.9045 19.7345 24.5917 20.5407 24.2642 21.3849C24.7546 21.8976 25.2898 22.4595 25.8079 23.0042ZM21.6094 17.6231C21.607 16.1324 20.4185 14.8756 19.0231 14.8877C17.613 14.8997 16.4343 16.1609 16.4506 17.6395C16.4668 19.1242 17.622 20.3439 19.0223 20.3551C20.4217 20.3663 21.6119 19.1104 21.6094 17.6231Z" fill="white"/>
<path d="M8.89425 7.53369C8.89425 8.50219 8.89425 9.46464 8.89425 10.4478C7.39131 10.4478 5.89814 10.4478 4.37891 10.4478C4.37891 9.48363 4.37891 8.52204 4.37891 7.53369C5.8737 7.53369 7.3742 7.53369 8.89425 7.53369Z" fill="white"/>
<path d="M8.90158 15.0962C8.90158 16.0742 8.90158 17.0289 8.90158 18.006C7.39375 18.006 5.89895 18.006 4.37891 18.006C4.37891 17.0384 4.37891 16.0776 4.37891 15.0962C5.87696 15.0962 7.37176 15.0962 8.90158 15.0962Z" fill="white"/>
<path d="M4.375 23.0073C5.8926 23.0073 7.38659 23.0073 8.89767 23.0073C8.89767 23.9758 8.89767 24.927 8.89767 25.9068C7.39392 25.9068 5.89423 25.9068 4.375 25.9068C4.375 24.946 4.375 23.9939 4.375 23.0073Z" fill="white"/>
</g>
<defs>
<clipPath id="clip0_548_2768">
<rect width="26.8966" height="34.6552" fill="white" transform="translate(0.550781 0.931152)"/>
</clipPath>
</defs>
</svg>
