<svg width="50" height="50" viewBox="0 0 50 50" fill="none" xmlns="http://www.w3.org/2000/svg">
<path d="M26.7202 30.1441C25.5296 30.1441 24.4352 30.1441 23.2801 30.1441C23.2801 32.7112 23.2801 35.2656 23.2801 37.8555C21.8134 37.8555 20.4075 37.8555 18.9458 37.8555C18.9458 36.9846 18.9281 36.1264 18.9534 35.2707C18.9661 34.8985 18.8774 34.6479 18.4974 34.5466C18.1402 34.4504 18.0693 34.2099 18.0718 33.858C18.0896 32.0656 18.0794 30.2733 18.0794 28.4454C16.9243 28.4454 15.8046 28.4454 14.6419 28.4454C14.6419 29.7062 14.6419 30.9543 14.6419 32.2024C14.5988 32.2353 14.5558 32.2656 14.5102 32.2986C13.8541 31.6808 13.1524 31.1062 12.552 30.4403C4.89161 21.9568 8.88139 8.53666 19.9388 5.63288C21.0737 5.33415 22.2744 5.19744 23.4498 5.15946C25.565 5.09111 27.6853 5.03795 29.7752 5.54934C36.8707 7.28604 41.7446 13.7645 41.3393 21.0657C41.0961 25.4429 39.2468 29.0657 35.8802 31.896C35.7561 31.9998 35.6269 32.096 35.4977 32.1922C35.4724 32.2099 35.4369 32.215 35.3559 32.2429C35.3559 28.6834 35.3559 25.1391 35.3559 21.5543C34.1906 21.5543 33.0709 21.5543 31.8803 21.5543C31.8803 21.7366 31.8803 21.9265 31.8803 22.1163C31.8803 26.0125 31.8752 29.9087 31.8904 33.8074C31.893 34.1998 31.8144 34.4631 31.4142 34.577C31.0899 34.6707 30.9988 34.8884 31.0089 35.2251C31.0342 36.0859 31.0165 36.9466 31.0165 37.8504C29.5903 37.8504 28.1818 37.8504 26.7151 37.8504C26.7202 35.3011 26.7202 32.7467 26.7202 30.1441ZM21.6335 22.3746C20.4505 22.3746 19.3004 22.3872 18.1529 22.3619C17.9756 22.3568 17.7679 22.2176 17.6336 22.0809C16.9091 21.3518 15.8325 21.3189 15.1308 22.0277C14.462 22.7062 14.4646 23.7771 15.1409 24.448C15.8502 25.1543 16.9116 25.1138 17.6437 24.3847C17.7957 24.2328 18.0566 24.1163 18.272 24.1087C19.2422 24.0809 20.2124 24.1113 21.1826 24.0885C21.5195 24.0809 21.669 24.1771 21.8032 24.5062C22.5404 26.3366 24.5543 27.1644 26.3402 26.3999C28.1058 25.6454 28.8987 23.6556 28.121 21.8682C27.9868 21.5594 28.04 21.3948 28.2578 21.1771C29.3471 20.1062 30.4313 19.0303 31.4953 17.9391C31.7562 17.6708 31.9487 17.6227 32.3186 17.7796C34.4946 18.7113 36.9492 17.1467 37.0556 14.7949C37.119 13.3594 36.3185 12.0506 35.0164 11.4708C33.7093 10.8885 32.1894 11.1645 31.1811 12.1696C30.1653 13.1797 29.9044 14.6303 30.4567 15.9999C30.5225 16.1645 30.5023 16.4708 30.3933 16.5872C29.2686 17.7493 28.1236 18.8885 26.9659 20.0151C26.857 20.1214 26.5783 20.1644 26.4314 20.1062C25.7652 19.8429 25.0939 19.7012 24.3795 19.8455C22.9761 20.1315 22.1047 20.9974 21.6335 22.3746Z" fill="white"/>
<path d="M40.6122 29.134C40.9593 28.4505 41.2785 27.7872 41.6382 27.1467C41.7066 27.0226 41.9473 26.8935 42.0764 26.9214C42.9529 27.0961 43.7889 26.9847 44.6147 26.6758C44.7388 26.6277 44.9694 26.6733 45.0656 26.7644C45.8306 27.4986 46.5805 28.2479 47.3126 29.0125C47.4139 29.1188 47.462 29.3669 47.4139 29.5062C46.5855 31.853 47.462 33.9796 49.6862 35.0175C49.8179 35.0783 49.9825 35.2504 49.9851 35.372C50.0079 36.5542 49.9978 37.739 49.9978 38.9061C48.1105 39.6808 47.0972 41.0352 47.1074 43.058C47.1099 43.5466 47.3252 44.0301 47.4038 44.5238C47.4316 44.6985 47.4063 44.9491 47.2974 45.0656C46.5805 45.82 45.8408 46.5567 45.0884 47.2757C44.982 47.3769 44.7363 47.4301 44.597 47.382C42.1626 46.5466 40.0625 47.4478 39.0189 49.7972C38.9986 49.8453 38.9682 49.8883 38.9378 49.9466C37.7016 49.9466 36.4629 49.9466 35.1735 49.9466C34.639 48.5137 33.6333 47.544 32.1184 47.1668C32.3464 46.2757 32.5643 45.42 32.7821 44.5643C37.9321 47.2909 43.0112 44.5213 44.8022 40.8555C46.7578 36.8504 45.438 31.4656 40.6122 29.134Z" fill="white"/>
<path d="M1.84164 16.3822C3.41729 14.5645 2.17855 12.1063 0 12.0101C0 10.8911 0 9.76957 0 8.61008C1.06901 8.51894 1.90498 8.04553 2.33815 7.02021C2.7764 5.98225 2.53068 5.05567 1.83151 4.24808C2.6396 3.44302 3.43756 2.64556 4.23805 1.84556C6.13542 3.43796 8.52423 2.10632 8.61036 0C9.73003 0 10.8497 0 12.015 0C12.1062 1.05822 12.5748 1.89872 13.6007 2.33163C14.6368 2.7696 15.5665 2.53163 16.3569 1.84556C17.1346 2.62783 17.9021 3.39492 18.5886 4.08605C17.3803 4.69111 16.1086 5.34174 14.8192 5.95693C14.6976 6.01516 14.4342 5.89111 14.2949 5.77718C12.3164 4.16453 10.1303 3.79238 7.80732 4.84554C5.6921 5.8025 4.49897 7.52907 4.31404 9.83792C4.12912 12.1518 5.07908 13.9847 6.97898 15.3214C7.06764 15.3822 7.16135 15.4379 7.25255 15.4936C7.32855 15.5417 7.40201 15.5873 7.49321 15.6455C7.32095 16.4885 7.14869 17.324 6.96883 18.21C5.95049 17.9138 5.02334 18.0784 4.26084 18.7923C3.44009 17.9746 2.64213 17.1797 1.84164 16.3822Z" fill="white"/>
<path d="M42.2335 37.0276C42.2284 39.4099 40.6123 41.4707 38.2918 42.0504C36.0145 42.62 33.608 41.5441 32.4959 39.4681C32.3616 39.215 32.3844 39.0302 32.4756 38.7416C32.6529 38.177 32.7669 37.5517 32.7213 36.9669C32.6605 36.1593 33.0836 35.7036 33.6738 35.3922C35.2875 34.5416 36.7643 33.5163 38.0867 32.2555C38.2209 32.1289 38.5502 32.0986 38.7453 32.1618C40.8098 32.8302 42.236 34.8353 42.2335 37.0276Z" fill="white"/>
<path d="M31.0064 43.0985C31.1558 45.6681 30.2996 47.739 28.0906 49.0732C26.0084 50.3314 23.8399 50.3061 21.7779 49.0124C19.6298 47.663 18.809 45.62 18.9559 43.101C22.9711 43.0985 26.9608 43.0985 31.0064 43.0985Z" fill="white"/>
<path d="M28.3997 41.3314C26.1021 41.3314 23.8602 41.3314 21.5753 41.3314C21.5753 40.7795 21.5753 40.2352 21.5753 39.6529C23.8298 39.6529 26.097 39.6529 28.3997 39.6529C28.3997 40.1972 28.3997 40.7416 28.3997 41.3314Z" fill="white"/>
<path d="M11.8503 8.26071C11.2778 8.94678 10.7104 9.56957 10.2088 10.2404C9.70976 10.9088 9.27405 11.6278 8.78261 12.367C8.00998 11.7772 7.64773 10.9974 7.74906 10.0455C7.86052 8.99489 8.44569 8.25312 9.4387 7.88097C10.3051 7.55692 11.1131 7.70375 11.8503 8.26071Z" fill="white"/>
<path d="M34.4667 14.6379C34.454 15.1037 34.0513 15.486 33.5852 15.4733C33.1165 15.4607 32.7365 15.0607 32.7492 14.5923C32.7619 14.124 33.1596 13.7442 33.6282 13.7569C34.0969 13.7721 34.4794 14.1721 34.4667 14.6379Z" fill="white"/>
<path d="M25.0001 22.3796C25.4688 22.3897 25.8513 22.7872 25.8412 23.2556C25.831 23.7214 25.4308 24.1062 24.9647 24.0961C24.496 24.0859 24.1135 23.6859 24.1262 23.2201C24.1338 22.7492 24.5315 22.3695 25.0001 22.3796Z" fill="white"/>
</svg>
