<svg xmlns="http://www.w3.org/2000/svg" xmlns:xlink="http://www.w3.org/1999/xlink" width="326px" height="60px" viewBox="0 0 326 60"><title>Logos - Finrater</title><g id="Logos---Finrater" stroke="none" stroke-width="1" fill="none" fill-rule="evenodd"><g id="finrater_logo" transform="translate(45.000000, -0.000000)" fill-rule="nonzero"><g id="Group"><circle id="Oval" fill="#E97725" cx="26.53" cy="26.53" r="26.53"></circle><g transform="translate(7.850000, 9.210000)" fill="#FFFFFF" id="Path"><path d="M7.92,27.24 C9.84,24.73 11.2,21.93 11.2,19.03 C11.2,18.8 11.42,15.11 8.95,11.22 C8.35,10.27 7.02,8.81 6.52,8.45 C6.08,8.67 5.31,9.49 5.45,10.37 C5.59,11.25 5.93,11.19 6.82,12.82 C7.71,14.45 8.12,16.06 8.16,18.45 C8.22,21.75 7.03,24.49 5.82,26.77 C4.42,29.4 0.16,34.3 0,34.5 C3.9,31.81 6.56,29.02 7.92,27.24 L7.92,27.24 Z"></path><path d="M24.59,5.51 C23.01,7.23 21.35,7.9 18.8,8.16 C15.91,8.46 13.25,7.71 10.33,5.88 C5.18,2.66 2.94,0.16 2.73,0 C2.87,0.43 6.31,5.34 9.97,8.05 C12.72,10.08 15.77,11.36 18.89,11.18 C22.75,10.95 25.79,9.01 27.62,7.02 C28.2,6.39 28.92,5.45 28.94,5.42 C27.45,5.45 24.92,5.5 24.59,5.51 L24.59,5.51 Z"></path><path d="M11.92,29.6 C13.5,27.88 15.16,27.21 17.71,26.95 C20.6,26.65 23.26,27.4 26.19,29.23 C31.34,32.45 33.58,34.95 33.78,35.11 C33.64,34.68 30.2,29.76 26.54,27.06 C23.79,25.03 20.74,23.75 17.62,23.93 C13.76,24.16 10.72,26.1 8.89,28.09 C8.31,28.72 7.59,29.66 7.57,29.69 C9.06,29.66 11.59,29.61 11.92,29.6 L11.92,29.6 Z"></path><path d="M29.08,8.49 C27.16,11 25.8,13.8 25.8,16.7 C25.8,16.93 25.58,20.62 28.05,24.51 C28.65,25.46 29.98,26.92 30.47,27.28 C30.92,27.06 31.68,26.24 31.54,25.36 C31.4,24.48 31.06,24.54 30.17,22.92 C29.28,21.29 28.87,19.68 28.83,17.29 C28.77,13.99 29.95,11.25 31.17,8.97 C32.57,6.34 36.83,1.45 36.99,1.24 C33.1,3.92 30.43,6.72 29.07,8.5 L29.08,8.49 Z"></path></g></g><g id="Group" transform="translate(67.020000, 2.640000)" fill="#696B73"><path d="M24.32,17.24 L25.43,17.24 L25.43,36.62 C25.43,37.89 25.7,38.74 26.26,39.16 C26.81,39.58 27.81,39.8 29.27,39.8 L29.27,40.88 L16.67,40.88 L16.67,39.8 C18.51,39.8 19.69,39.59 20.22,39.18 C20.75,38.77 21.01,37.91 21.01,36.62 L21.01,22.46 C21.01,21.06 20.77,20.14 20.28,19.69 C19.79,19.25 18.59,19.02 16.66,19.02 L16.66,17.94 L24.31,17.24 L24.32,17.24 Z M23.3,8.45 C23.97,8.45 24.53,8.68 24.99,9.15 C25.45,9.61 25.68,10.18 25.68,10.85 C25.68,11.52 25.45,12.1 24.98,12.58 C24.51,13.06 23.95,13.3 23.3,13.3 C22.65,13.3 22.05,13.06 21.57,12.58 C21.08,12.1 20.84,11.52 20.84,10.85 C20.84,10.18 21.08,9.61 21.56,9.15 C22.04,8.69 22.62,8.45 23.31,8.45 L23.3,8.45 Z" id="Shape"></path><path d="M39.5,17.24 L39.5,21.84 C42.19,18.77 44.96,17.24 47.82,17.24 C50.04,17.24 51.89,18 53.37,19.51 C54.85,21.02 55.59,23.02 55.59,25.5 L55.59,35.89 C55.59,37.48 55.85,38.53 56.38,39.04 C56.91,39.55 57.95,39.8 59.49,39.8 L59.49,40.88 L47.21,40.88 L47.21,39.8 C48.73,39.8 49.78,39.6 50.34,39.21 C50.9,38.82 51.18,38.06 51.18,36.94 L51.18,24.89 C51.18,23.28 50.7,22 49.74,21.04 C48.78,20.09 47.54,19.61 46.04,19.61 C43.88,19.61 41.7,21.11 39.5,24.12 L39.5,35.38 C39.5,37.29 39.75,38.5 40.24,39.02 C40.73,39.54 41.77,39.8 43.34,39.8 L43.34,40.88 L31.22,40.88 L31.22,39.8 C32.98,39.8 34.05,39.52 34.46,38.96 C34.86,38.4 35.06,37.2 35.06,35.38 L35.06,22.39 C35.06,21.01 34.82,20.1 34.33,19.67 C33.84,19.23 32.81,19.02 31.22,19.02 L31.22,17.94 L38.39,17.24 L39.5,17.24 L39.5,17.24 Z" id="Path"></path><path d="M19.18,5.55 L19.13,2.32 C19.13,1.91 17.8,1.08 17.79,1.07 C17.25,0.75 16.57,0.49 15.72,0.28 C14.95,0.09 14.14,0 13.35,0 C12.7,0 12.03,0.07 11.4,0.21 C7.11,1.17 4.43,4.96 4.23,9.23 L4.23,16.96 C3.57,17.4 2.51,17.92 1.02,18.51 L1.02,19.62 L4.23,19.62 L4.23,36.75 C4.23,37.87 3.99,38.66 3.5,39.12 C3.01,39.58 2.19,39.8 1.02,39.8 L0,39.8 L0,40.88 L13.04,40.88 L13.04,39.8 L11.96,39.8 C10.77,39.8 9.92,39.53 9.4,38.99 C8.88,38.45 8.62,37.58 8.62,36.37 L8.62,19.62 L14.17,19.62 L14.17,17.83 L8.62,17.83 L8.62,6.95 C8.62,5.09 9.11,3.68 10.11,2.65 C11.12,1.6 12.63,1.23 13.62,1.23 C14.34,1.23 15.07,1.35 15.71,1.69 C15.72,1.69 15.74,1.7 15.75,1.71 C15.86,1.77 15.96,1.84 16.06,1.91 C16.1,1.94 16.14,1.96 16.18,1.99 C16.24,2.04 16.3,2.09 16.36,2.14 C17.58,3.17 18.11,4.82 18.29,5.55 L19.17,5.55 L19.18,5.55 Z" id="Path"></path></g><path d="M184.22,41.78 C182.89,41.78 181.86,41.36 181.14,40.53 C180.42,39.7 180.06,38.5 180.06,36.96 L180.06,21.87 L188.06,21.87 L188.06,20.46 L180.06,20.46 L180.06,12.72 L179.11,12.72 C178.52,16.64 175.65,20.17 171.3,21.03 L171.3,21.87 L175.65,21.87 L175.65,37.56 C175.65,39.53 176.26,41.14 177.49,42.38 C178.72,43.63 180.31,44.25 182.28,44.25 C184.6,44.25 186.69,43.24 188.53,41.23 L187.59,40.45 C186.55,41.33 185.43,41.77 184.22,41.77 L184.22,41.78 Z" id="Path" fill="#696B73"></path><path d="M156.31,44.25 C154.51,44.25 152.97,43.65 151.68,42.46 C150.39,41.27 149.74,39.82 149.74,38.13 C149.74,36.44 150.3,35.19 151.41,34.15 C152.52,33.1 154.78,32.1 158.19,31.15 C160.33,30.56 161.77,30.05 162.51,29.63 L162.51,27.92 C162.51,26.25 162.04,24.9 161.11,23.87 C160.18,22.84 158.93,22.33 157.36,22.33 C155.94,22.33 154.68,22.77 153.58,23.66 C152.48,24.55 151.71,25.75 151.26,27.28 L150.09,26.96 C150.55,24.82 151.57,23.11 153.12,21.82 C154.67,20.53 156.5,19.88 158.59,19.88 C161.07,19.88 163.07,20.63 164.6,22.12 C166.13,23.61 166.9,25.68 166.9,28.32 L166.9,38.19 C166.9,39.59 166.99,40.53 167.17,41.03 C167.35,41.53 167.69,41.78 168.2,41.78 C168.54,41.78 168.81,41.64 169.02,41.35 C169.23,41.06 169.48,40.47 169.75,39.56 L170.86,39.56 C170.75,41 170.3,42.14 169.51,42.99 C168.72,43.84 167.67,44.26 166.38,44.26 C164.5,44.26 163.2,43.17 162.48,40.99 C161.34,42.24 160.32,43.1 159.43,43.56 C158.54,44.02 157.49,44.26 156.29,44.26 L156.31,44.25 Z M162.5,38.85 L162.5,31.04 C161.84,31.32 160.89,31.66 159.64,32.09 C157.33,32.87 155.86,33.65 155.21,34.42 C154.56,35.19 154.24,36.23 154.24,37.55 C154.24,38.69 154.58,39.68 155.27,40.52 C155.96,41.36 156.78,41.77 157.73,41.77 C158.6,41.77 159.51,41.49 160.46,40.93 C161.41,40.37 162.09,39.68 162.49,38.85 L162.5,38.85 Z" id="Shape" fill="#696B73"></path><path d="M211.95,37.62 L211.95,39.3 C210.55,41.08 209.13,42.35 207.68,43.11 C206.23,43.87 204.49,44.25 202.46,44.25 C198.86,44.25 195.9,43.12 193.56,40.87 C191.22,38.62 190.05,35.76 190.05,32.29 C190.05,28.82 191.17,25.86 193.4,23.47 C195.63,21.08 198.37,19.88 201.6,19.88 C204.27,19.88 206.59,20.78 208.58,22.58 C210.57,24.38 211.56,26.53 211.56,29.02 L211.56,29.5 L194.64,29.5 L194.64,29.82 C194.64,32.36 195.03,34.57 195.8,36.44 C196.57,38.31 197.7,39.78 199.18,40.84 C200.66,41.9 202.21,42.43 203.81,42.43 C205.31,42.43 206.6,42.12 207.67,41.49 C208.74,40.87 210.16,39.58 211.94,37.63 L211.95,37.62 Z M194.65,28.38 L207.19,28.38 L207.19,27.94 C207.19,25.89 206.6,24.26 205.43,23.05 C204.26,21.84 202.79,21.24 201.03,21.24 C199.17,21.24 197.67,21.87 196.54,23.14 C195.41,24.41 194.78,26.16 194.65,28.38 Z" id="Shape" fill="#696B73"></path><path d="M136.5,19.88 L136.5,24.86 C138.62,23.02 140.26,21.73 141.43,20.99 C142.6,20.25 143.58,19.88 144.37,19.88 C145.83,19.88 147.24,20.48 148.59,21.69 L146.84,25.78 C144.39,24.43 142.57,23.75 141.38,23.75 C140.07,23.75 138.44,24.68 136.49,26.54 L136.49,39.2 C136.49,40.47 136.75,41.33 137.28,41.78 C137.81,42.23 138.82,42.45 140.33,42.45 L140.33,43.53 L128.17,43.53 L128.17,42.45 C129.78,42.45 130.83,42.2 131.33,41.69 C131.83,41.18 132.08,39.96 132.08,38.03 L132.08,25.45 C132.08,23.86 131.81,22.83 131.27,22.36 C130.73,21.89 129.41,21.66 127.32,21.66 L127.32,20.58 L135.38,19.88 L136.49,19.88 L136.5,19.88 Z" id="Path" fill="#696B73"></path><path d="M224.06,19.88 L224.06,24.86 C226.18,23.02 227.82,21.73 228.99,20.99 C230.16,20.25 231.14,19.88 231.93,19.88 C233.39,19.88 234.8,20.48 236.15,21.69 L234.4,25.78 C231.95,24.43 230.13,23.75 228.94,23.75 C227.63,23.75 226,24.68 224.05,26.54 L224.05,39.2 C224.05,40.47 224.31,41.33 224.84,41.78 C225.37,42.23 226.38,42.45 227.89,42.45 L227.89,43.53 L215.73,43.53 L215.73,42.45 C217.34,42.45 218.39,42.2 218.89,41.69 C219.39,41.18 219.64,39.96 219.64,38.03 L219.64,25.45 C219.64,23.86 219.37,22.83 218.83,22.36 C218.29,21.89 216.97,21.66 214.88,21.66 L214.88,20.58 L222.94,19.88 L224.05,19.88 L224.06,19.88 Z" id="Path" fill="#696B73"></path></g></g></svg>