<svg xmlns="http://www.w3.org/2000/svg" width="2000" height="398" viewBox="0 0 2000 398" fill="none"><g clip-path="url(#clip0_1_768)"><path d="M198.669 0.5C88.9612 0.5 0 89.4345 0 199.169V397.865H198.669C308.404 397.865 397.339 308.904 397.339 199.169C397.339 89.4345 308.404 0.5 198.669 0.5Z" fill="white"></path><path d="M198.669 298.504H99.3347V199.169C99.3347 144.315 143.815 99.8347 198.669 99.8347C253.523 99.8347 298.031 144.315 298.031 199.169C298.031 254.023 253.55 298.504 198.669 298.504ZM198.669 0.5C88.9612 0.5 0 89.4345 0 199.169V397.865H198.669C308.404 397.865 397.339 308.904 397.339 199.169C397.339 89.4345 308.404 0.5 198.669 0.5Z" fill="#009940"></path><path d="M99.3613 298.504L99.308 298.451V199.169C99.308 144.315 143.789 99.8347 198.643 99.8347C226.056 99.8347 250.883 110.955 268.857 128.928H268.884L390.565 250.61C394.939 234.21 397.312 216.983 397.312 199.196C397.339 89.4612 308.377 0.5 198.669 0.5C88.9612 0.5 0 89.4345 0 199.169V397.839H198.669L99.3613 298.504Z" fill="#00CC5C"></path><path d="M598.325 202.796C611.552 202.796 621.979 199.489 629.659 192.876C637.312 186.262 641.125 177.755 641.125 167.355V166.795C641.125 155.062 637.259 146.235 629.499 140.262C621.739 134.315 611.365 131.328 598.325 131.328H557.791V202.796H598.325ZM523.311 99.9678H601.285C612.778 99.9678 623.179 101.514 632.512 104.635C641.845 107.755 649.739 112.208 656.246 118.048C662.752 123.888 667.739 130.875 671.206 138.955C674.699 147.062 676.433 156.102 676.433 166.075V166.635C676.433 177.755 674.353 187.489 670.193 195.862C666.032 204.236 660.379 211.249 653.206 216.903C646.032 222.556 637.632 226.849 628.005 229.756C618.378 232.69 608.085 234.13 597.151 234.13H557.791V297.704H523.337V99.9678H523.311Z" fill="#4A5969"></path><path d="M783.079 235.276C778.732 233.57 773.612 232.183 767.692 231.036C761.745 229.916 755.505 229.33 748.918 229.33C738.171 229.33 729.798 231.41 723.771 235.543C717.744 239.676 714.731 245.33 714.731 252.503V253.063C714.731 260.21 717.504 265.677 723.051 269.437C728.598 273.224 735.425 275.09 743.531 275.09C749.185 275.09 754.412 274.344 759.212 272.824C764.012 271.33 768.198 269.197 771.798 266.477C775.372 263.757 778.145 260.45 780.119 256.583C782.092 252.717 783.079 248.45 783.079 243.73V235.276ZM782.225 297.731V279.357C777.132 285.384 770.652 290.477 762.732 294.611C754.811 298.744 745.211 300.824 733.905 300.824C726.758 300.824 719.958 299.837 713.558 297.864C707.158 295.891 701.557 292.957 696.757 289.09C691.957 285.224 688.091 280.424 685.184 274.69C682.251 268.957 680.811 262.317 680.811 254.77V254.21C680.811 245.917 682.331 238.716 685.344 232.61C688.357 226.503 692.544 221.41 697.931 217.356C703.291 213.303 709.691 210.289 717.131 208.316C724.571 206.343 732.625 205.356 741.291 205.356C749.958 205.356 758.012 205.916 764.305 207.063C770.625 208.183 776.678 209.703 782.519 211.569V208.743C782.519 198.396 779.372 190.476 773.052 185.009C766.732 179.542 757.665 176.822 745.798 176.822C737.318 176.822 729.798 177.676 723.184 179.356C716.598 181.062 709.904 183.302 703.131 186.129L693.797 158.715C702.091 154.955 710.571 151.942 719.211 149.675C727.878 147.409 738.331 146.289 750.571 146.289C772.785 146.289 789.265 151.809 800.012 162.822C810.759 173.836 816.119 189.329 816.119 209.303V297.731H782.225Z" fill="#4A5969"></path><path d="M870.197 343.785C863.051 343.785 856.677 342.985 851.13 341.385C845.584 339.785 840.144 337.571 834.89 334.745L846.464 309.304C849.664 311.011 852.917 312.371 856.224 313.411C859.504 314.451 862.944 314.958 866.544 314.958C871.451 314.958 875.477 313.731 878.677 311.278C881.877 308.824 884.891 304.318 887.718 297.731L825.557 148.555H862.01L904.384 259.304L943.078 148.555H978.679L919.345 301.971C916.331 309.704 913.238 316.184 910.038 321.464C906.838 326.744 903.264 331.011 899.291 334.318C895.344 337.625 890.998 340.025 886.304 341.518C881.611 343.011 876.224 343.785 870.197 343.785Z" fill="#4A5969"></path><path d="M994.922 99.9678H1027.06L1132.79 236.69V99.9678H1167.27V297.73H1138.23L1029.4 157.035V297.73H994.922V99.9678Z" fill="#4A5969"></path><path d="M1299.32 212.69C1298.76 207.223 1297.54 202.103 1295.64 197.303C1293.75 192.503 1291.22 188.369 1288.02 184.876C1284.82 181.382 1281 178.609 1276.58 176.556C1272.15 174.476 1267.11 173.436 1261.46 173.436C1250.9 173.436 1242.2 177.062 1235.32 184.316C1228.44 191.569 1224.26 201.036 1222.74 212.716H1299.32V212.69ZM1265.43 301.117C1254.68 301.117 1244.66 299.224 1235.35 295.464C1226.02 291.704 1217.94 286.424 1211.06 279.65C1204.18 272.877 1198.76 264.717 1194.82 255.197C1190.87 245.677 1188.9 235.196 1188.9 223.703V223.143C1188.9 212.396 1190.68 202.343 1194.26 192.903C1197.83 183.489 1202.87 175.249 1209.38 168.182C1215.88 161.116 1223.54 155.569 1232.39 151.515C1241.24 147.462 1251.03 145.435 1261.78 145.435C1273.64 145.435 1284.04 147.595 1293 151.942C1301.94 156.262 1309.38 162.102 1315.32 169.462C1321.24 176.796 1325.72 185.329 1328.74 195.036C1331.75 204.743 1333.25 214.956 1333.25 225.703C1333.25 227.196 1333.19 228.77 1333.11 230.37C1333.01 231.97 1332.87 233.623 1332.69 235.303H1223.06C1224.92 247.543 1229.78 256.903 1237.62 263.41C1245.43 269.917 1254.9 273.144 1266.02 273.144C1274.5 273.144 1281.83 271.65 1288.04 268.637C1294.26 265.624 1300.36 261.197 1306.42 255.357L1326.47 273.144C1319.32 281.624 1310.79 288.397 1300.9 293.491C1290.98 298.557 1279.16 301.117 1265.43 301.117Z" fill="#4A5969"></path><path d="M1452.55 235.276C1448.2 233.57 1443.08 232.183 1437.16 231.036C1431.21 229.916 1424.97 229.33 1418.39 229.33C1407.64 229.33 1399.27 231.41 1393.24 235.543C1387.21 239.676 1384.2 245.33 1384.2 252.503V253.063C1384.2 260.21 1386.97 265.677 1392.52 269.437C1398.07 273.224 1404.89 275.09 1413 275.09C1418.65 275.09 1423.88 274.344 1428.68 272.824C1433.48 271.33 1437.67 269.197 1441.24 266.477C1444.82 263.757 1447.62 260.45 1449.59 256.583C1451.56 252.717 1452.55 248.45 1452.55 243.73V235.276ZM1451.7 297.731V279.357C1446.6 285.384 1440.12 290.477 1432.2 294.611C1424.28 298.744 1414.68 300.824 1403.37 300.824C1396.23 300.824 1389.43 299.837 1383.03 297.864C1376.63 295.891 1371.03 292.957 1366.2 289.09C1361.4 285.224 1357.53 280.424 1354.63 274.69C1351.69 268.957 1350.25 262.317 1350.25 254.77V254.21C1350.25 245.917 1351.75 238.716 1354.79 232.61C1357.8 226.503 1361.99 221.41 1367.35 217.356C1372.71 213.303 1379.11 210.289 1386.55 208.316C1393.99 206.343 1402.04 205.356 1410.71 205.356C1419.37 205.356 1427.43 205.916 1433.72 207.063C1440.02 208.183 1446.1 209.703 1451.94 211.569V208.743C1451.94 198.396 1448.79 190.476 1442.47 185.009C1436.15 179.542 1427.08 176.822 1415.21 176.822C1406.73 176.822 1399.19 177.676 1392.6 179.356C1386.01 181.062 1379.32 183.302 1372.55 186.129L1363.24 158.715C1371.53 154.955 1379.99 151.942 1388.65 149.675C1397.32 147.409 1407.77 146.289 1420.01 146.289C1442.23 146.289 1458.71 151.809 1469.46 162.822C1480.2 173.836 1485.56 189.329 1485.56 209.303V297.731H1451.7Z" fill="#4A5969"></path><path d="M1516.42 148.555H1550.87V182.183C1555.59 170.876 1562.26 161.836 1570.92 155.062C1579.59 148.289 1590.5 145.169 1603.7 145.729V181.889H1601.72C1594.18 181.889 1587.32 183.116 1581.11 185.569C1574.9 188.023 1569.54 191.703 1565 196.583C1560.47 201.489 1557 207.65 1554.55 215.09C1552.1 222.53 1550.87 231.143 1550.87 240.957V297.731H1516.42V148.555Z" fill="#4A5969"></path><path d="M1626.88 99.9678H1666.1L1729.92 193.489L1793.7 99.9678H1832.96V297.73H1796.42V155.889L1730.21 249.143H1729.01L1663.41 156.475V297.73H1626.88V99.9678Z" fill="#4A5969"></path><path d="M1966.13 212.69C1965.57 207.223 1964.34 202.103 1962.45 197.303C1960.56 192.503 1958.02 188.369 1954.82 184.876C1951.62 181.382 1947.81 178.609 1943.38 176.556C1938.95 174.476 1933.91 173.436 1928.26 173.436C1917.7 173.436 1909.01 177.062 1902.13 184.316C1895.25 191.569 1891.06 201.036 1889.54 212.716H1966.13V212.69ZM1932.21 301.117C1921.46 301.117 1911.43 299.224 1902.13 295.464C1892.79 291.704 1884.71 286.424 1877.83 279.65C1870.95 272.877 1865.54 264.717 1861.59 255.197C1857.65 245.677 1855.67 235.196 1855.67 223.703V223.143C1855.67 212.396 1857.46 202.343 1861.03 192.903C1864.61 183.489 1869.65 175.249 1876.15 168.182C1882.66 161.116 1890.31 155.569 1899.17 151.515C1908.02 147.462 1917.81 145.435 1928.55 145.435C1940.42 145.435 1950.82 147.595 1959.76 151.942C1968.69 156.262 1976.16 162.102 1982.08 169.462C1988 176.796 1992.48 185.329 1995.49 195.036C1998.5 204.743 2000 214.956 2000 225.703C2000 227.196 1999.94 228.77 1999.86 230.37C1999.76 231.97 1999.62 233.623 1999.44 235.303H1889.81C1891.67 247.543 1896.53 256.903 1904.34 263.41C1912.15 269.917 1921.62 273.144 1932.74 273.144C1941.22 273.144 1948.56 271.65 1954.77 268.637C1960.98 265.624 1967.09 261.197 1973.14 255.357L1993.2 273.144C1986.02 281.624 1977.52 288.397 1967.62 293.491C1957.78 298.557 1945.97 301.117 1932.21 301.117Z" fill="#4A5969"></path></g><defs><clipPath id="clip0_1_768"><rect width="2000" height="397.365" fill="white" transform="translate(0 0.5)"></rect></clipPath></defs></svg>