<svg xmlns="http://www.w3.org/2000/svg" width="206" height="47" viewBox="0 0 206 47" fill="none"><path d="M27.027 26.3984L0 36.4469V44.2814L24.7602 35.1696C28.6835 33.3813 29.8168 29.2086 27.027 26.3984Z" fill="#5D5D5D"></path><path d="M9.06711 18.9896L0 3.15039V22.481L9.06711 18.9896Z" fill="#46C1BE"></path><path d="M10.639 18.1384L37.4916 7.74927V0L12.9057 9.36727C8.98248 11.0704 7.84909 15.2431 10.639 18.1384Z" fill="#5D5D5D"></path><path d="M28.6855 25.6321L37.4911 41.0454V22.1406L28.6855 25.6321Z" fill="#46C1BE"></path><path d="M0 25.2056V34.0619L37.489 19.7555V10.5586L0 25.2056Z" fill="#46C1BE"></path><path d="M62.3342 27.8468L53.703 12.6037C53.4262 11.9519 53.0435 11.3481 52.5696 10.8154C52.2838 10.573 51.9519 10.388 51.5929 10.2712C51.2339 10.1543 50.8547 10.1077 50.4772 10.1342C48.472 10.1342 47.4258 11.2412 47.4258 13.285V31.8491H51.0003V14.4772L59.7187 29.7202C60.0064 30.3665 60.3882 30.9688 60.8521 31.5085C61.4025 31.9848 62.1231 32.2296 62.8573 32.1898C63.2825 32.207 63.7065 32.1321 64.0985 31.9701C64.4904 31.8081 64.8407 31.5632 65.1241 31.253C65.392 30.9836 65.6 30.6629 65.7351 30.3112C65.8701 29.9595 65.9292 29.5843 65.9087 29.2093V10.3896H62.3342V27.8468Z" fill="#46C1BE"></path><path d="M79.7751 15.498H69.1387V18.3082H79.3392C80.2982 18.3082 80.9957 18.4785 81.3444 18.9895C81.7179 19.5754 81.9004 20.2585 81.8675 20.9481H73.9338C72.6584 20.8856 71.3988 21.2457 70.3592 21.97C69.9404 22.3639 69.6143 22.8422 69.4035 23.3716C69.1928 23.9009 69.1024 24.4687 69.1387 25.0356V27.9309C69.1106 28.4882 69.2231 29.0437 69.4664 29.5485C69.7096 30.0534 70.0761 30.4921 70.5336 30.8263C71.6059 31.5509 72.8929 31.91 74.1953 31.8481H80.4726C81.703 31.8744 82.9046 31.4832 83.8727 30.7411C84.2716 30.3504 84.5853 29.885 84.7951 29.3727C85.0049 28.8605 85.1063 28.3121 85.0933 27.7606V19.6707C85.0933 16.8606 83.3496 15.498 79.7751 15.498ZM81.7803 27.2497C81.7803 28.4419 81.0828 29.038 79.5135 29.038H74.8056C74.1839 29.0505 73.5739 28.8717 73.0619 28.527C72.8401 28.3732 72.6604 28.1685 72.5387 27.9309C72.4171 27.6933 72.3572 27.43 72.3645 27.1645V25.5465C72.3645 24.184 73.1491 23.5028 74.7184 23.5028H81.0828C81.5188 23.5028 81.7803 23.6731 81.7803 24.0989V27.2497Z" fill="#46C1BE"></path><path d="M107.062 15.5843H104.097C103.307 15.5582 102.525 15.7427 101.834 16.1176C101.143 16.4927 100.569 17.0442 100.174 17.7132C99.787 17.0337 99.2133 16.4732 98.5176 16.0952C97.8262 15.719 97.0407 15.5419 96.2508 15.5843H93.1994C90.0608 15.5843 88.4043 17.3726 88.4043 20.9492V31.7641H91.7173V21.8007C91.7173 19.9273 92.5891 19.0757 94.2456 19.0757C95.2657 19.0485 96.2866 19.1054 97.297 19.246C98.0817 19.5867 98.5176 20.5234 98.5176 21.8859V31.7641H101.743V21.8859C101.689 21.2054 101.841 20.5245 102.179 19.9273C102.396 19.6562 102.674 19.4381 102.992 19.2903C103.309 19.1426 103.658 19.0691 104.01 19.0757C105.03 18.9922 106.058 19.0495 107.062 19.246C108.021 19.5867 108.457 20.4382 108.457 21.8007V31.7641H111.77V20.9492C111.834 19.5454 111.403 18.1625 110.549 17.032C110.113 16.5546 109.574 16.1773 108.971 15.927C108.369 15.6768 107.716 15.5598 107.062 15.5843Z" fill="#46C1BE"></path><path d="M131.125 21.97V19.9262C131.125 17.0309 129.469 15.498 126.156 15.498H120.401C116.914 15.498 115.17 16.9457 115.17 19.6707V27.42C115.114 28.0835 115.228 28.7503 115.502 29.3599C115.776 29.9696 116.202 30.5028 116.74 30.9114C117.931 31.5699 119.298 31.8664 120.663 31.763H131.038V29.038H121.273C120.586 29.0909 119.897 28.9738 119.268 28.6973C119 28.4642 118.789 28.1742 118.653 27.8494C118.517 27.5247 118.459 27.1739 118.483 26.8239V26.3129L131.125 21.97ZM118.396 23.5879V20.352C118.396 18.9895 119.442 18.3082 121.448 18.3082H125.109C126.853 18.3082 127.725 18.9043 127.725 20.1817V20.352L118.396 23.5879Z" fill="#46C1BE"></path><path d="M151.003 13.285H141.412C139.843 13.285 138.884 13.6257 138.535 14.3069C138.221 15.1804 138.102 16.1097 138.187 17.0319C138.165 17.3778 138.234 17.7233 138.386 18.0361C138.539 18.349 138.77 18.6188 139.058 18.8202C139.777 19.2078 140.594 19.3852 141.412 19.3312H145.423C146.86 19.2679 148.275 19.6888 149.433 20.5234C149.945 20.8971 150.355 21.3874 150.628 21.9513C150.902 22.5153 151.03 23.1359 151.003 23.7593V27.2508C151.037 27.8995 150.913 28.5468 150.64 29.1392C150.367 29.7315 149.953 30.2518 149.433 30.657C148.173 31.4744 146.671 31.8634 145.161 31.7641H134.438V29.039H144.028C145.597 29.039 146.556 28.7836 146.992 27.5914C147.233 26.6455 147.322 25.6685 147.254 24.696C147.254 23.1632 146.207 22.482 144.202 22.482H140.192C138.772 22.5154 137.374 22.1296 136.181 21.3749C135.632 21.026 135.183 20.5453 134.878 19.9788C134.573 19.4123 134.421 18.7789 134.438 18.139V14.7327C134.415 14.0138 134.579 13.3009 134.914 12.6606C135.249 12.0203 135.745 11.4734 136.356 11.071C137.478 10.3914 138.786 10.0644 140.105 10.1342H151.003V13.285Z" fill="#5D5D5D"></path><path d="M167.218 31.8481H159.72C156.145 31.8481 154.314 30.4005 154.314 27.5051V19.6707C154.314 16.8606 155.884 15.498 158.848 15.498H167.218V18.3082H160.243C159.544 18.2124 158.833 18.3634 158.238 18.734C158.005 18.9316 157.826 19.1835 157.72 19.4663C157.613 19.7492 157.581 20.0538 157.627 20.352V26.909C157.627 28.3567 158.586 29.038 160.417 29.038H167.218V31.8481Z" fill="#5D5D5D"></path><path d="M186.397 27.7606C186.427 28.314 186.332 28.8671 186.121 29.3817C185.91 29.8963 185.589 30.36 185.176 30.7411C184.209 31.4832 183.006 31.8744 181.776 31.8481H175.499C174.198 31.8977 172.915 31.5396 171.837 30.8263C171.38 30.4921 171.013 30.0534 170.77 29.5485C170.527 29.0437 170.414 28.4882 170.442 27.9309V25.0356C170.398 24.46 170.493 23.8824 170.72 23.3496C170.947 22.8168 171.3 22.3441 171.75 21.97C172.783 21.2331 174.047 20.8716 175.325 20.9481H183.171C183.252 20.2544 183.066 19.5562 182.648 18.9895C182.299 18.4785 181.689 18.3082 180.643 18.3082H170.442V15.498H181.079C184.653 15.498 186.397 16.8606 186.397 19.6707V27.7606ZM183.084 27.2497V24.0989C183.084 23.6731 182.91 23.5028 182.386 23.5028H176.022C174.453 23.5028 173.755 24.184 173.755 25.5465V27.1645C173.738 27.4227 173.784 27.6812 173.89 27.9183C173.997 28.1554 174.16 28.3641 174.366 28.527C174.877 28.8717 175.488 29.0505 176.109 29.038H180.817C182.386 29.038 183.084 28.4419 183.084 27.2497Z" fill="#5D5D5D"></path><path d="M202.265 31.763V21.459C202.265 19.7559 201.306 18.9895 199.476 18.9895H195.814C193.896 18.9895 193.024 19.7559 193.024 21.459V31.763H189.711V20.4371C189.711 17.116 191.367 15.498 194.68 15.498H200.522C203.835 15.498 205.491 17.116 205.491 20.4371V31.763H202.265Z" fill="#5D5D5D"></path><path d="M85.7539 40.626H89.7216L90.5114 42.4844H91.3198L88.1791 35.2087H87.3149L84.1742 42.4844H84.9547L85.7539 40.626ZM86.0419 39.929L87.7331 35.9985L89.4242 39.929H86.0419ZM102.465 42.4844V35.2087H101.368L98.6735 41.4437L95.9509 35.2087H94.873V42.4844H95.6257V36.2958L98.3111 42.4844H98.9987L101.703 36.2494H101.712V42.4844H102.465ZM108.775 40.2264C108.785 40.1799 108.785 40.0963 108.785 39.9848C108.785 39.2321 108.58 38.6282 108.171 38.1543C107.763 37.6804 107.187 37.4388 106.443 37.4388C105.765 37.4388 105.189 37.6897 104.724 38.2007C104.26 38.7118 104.027 39.3065 104.027 39.9941C104.027 40.7096 104.269 41.3229 104.752 41.8246C105.235 42.3171 105.83 42.568 106.545 42.568C107.437 42.568 108.227 42.1034 108.645 41.2857L108.106 40.9326C107.818 41.5273 107.233 41.9268 106.536 41.9268C106.053 41.9268 105.644 41.7689 105.31 41.4437C104.975 41.1184 104.789 40.7096 104.761 40.2264H108.775ZM104.771 39.6131C104.836 39.1857 105.021 38.8233 105.337 38.5259C105.653 38.2193 106.025 38.0706 106.443 38.0706C107.372 38.0706 107.948 38.6839 108.051 39.6131H104.771ZM114.225 42.4844V39.6317C114.225 39.195 114.345 38.8326 114.596 38.5445C114.847 38.2472 115.182 38.0985 115.6 38.0985C116.464 38.0985 116.882 38.7025 116.882 39.5945V42.4844H117.607V39.418C117.607 38.2286 116.938 37.4388 115.776 37.4388C115.042 37.4388 114.457 37.764 114.029 38.4237C113.723 37.764 113.193 37.4295 112.44 37.4295C111.734 37.4295 111.26 37.7454 110.842 38.3866V37.5224H110.127V42.4844H110.852V39.6596C110.852 39.2321 110.972 38.8605 111.223 38.5538C111.474 38.2472 111.809 38.0892 112.227 38.0892C113.082 38.0892 113.509 38.7118 113.509 39.5759V42.4844H114.225ZM124.247 39.9941C124.247 39.3158 124.024 38.7211 123.587 38.21C123.151 37.6989 122.593 37.4388 121.915 37.4388C121.134 37.4388 120.493 37.8197 120.001 38.591V34.9206H119.276V42.4844H119.991V41.4437C120.447 42.187 121.088 42.5587 121.915 42.5587C122.593 42.5587 123.151 42.3078 123.587 41.7968C124.024 41.2857 124.247 40.691 124.247 39.9941ZM121.766 41.9176C121.255 41.9176 120.828 41.7317 120.493 41.3507C120.159 40.9698 119.991 40.5144 119.991 39.9848C119.991 39.4737 120.159 39.037 120.502 38.656C120.846 38.2751 121.264 38.0799 121.766 38.0799C122.296 38.0799 122.714 38.2658 123.03 38.6467C123.346 39.0184 123.504 39.4737 123.504 40.0127C123.504 40.5609 123.346 41.0162 123.03 41.3786C122.723 41.741 122.296 41.9176 121.766 41.9176ZM130.007 40.2264C130.016 40.1799 130.016 40.0963 130.016 39.9848C130.016 39.2321 129.812 38.6282 129.403 38.1543C128.994 37.6804 128.418 37.4388 127.675 37.4388C126.996 37.4388 126.42 37.6897 125.955 38.2007C125.491 38.7118 125.259 39.3065 125.259 39.9941C125.259 40.7096 125.5 41.3229 125.983 41.8246C126.467 42.3171 127.061 42.568 127.777 42.568C128.669 42.568 129.459 42.1034 129.877 41.2857L129.338 40.9326C129.05 41.5273 128.464 41.9268 127.767 41.9268C127.284 41.9268 126.875 41.7689 126.541 41.4437C126.206 41.1184 126.021 40.7096 125.993 40.2264H130.007ZM126.002 39.6131C126.067 39.1857 126.253 38.8233 126.569 38.5259C126.885 38.2193 127.256 38.0706 127.675 38.0706C128.604 38.0706 129.18 38.6839 129.282 39.6131H126.002ZM131.358 37.5224V42.4844H132.083V40.0591C132.083 39.5481 132.204 39.1206 132.455 38.7582C132.705 38.3958 133.096 38.21 133.635 38.21C133.7 38.21 133.793 38.2193 133.913 38.2286V37.4573C133.876 37.4481 133.793 37.4481 133.672 37.4481C133.04 37.4481 132.417 37.7919 132.074 38.5074V37.5224H131.358ZM138.289 42.5587C139.116 42.5587 139.822 42.345 140.389 41.9083C140.965 41.4715 141.365 40.9419 141.578 40.3193L140.891 39.9941C140.473 41.137 139.608 41.8339 138.317 41.8339C137.49 41.8339 136.811 41.5459 136.273 40.9791C135.734 40.4122 135.464 39.6875 135.464 38.8233C135.464 37.9591 135.743 37.2529 136.291 36.6954C136.849 36.1379 137.518 35.8591 138.308 35.8591C139.004 35.8591 139.562 36.0357 139.98 36.3888C140.408 36.7326 140.705 37.1693 140.881 37.6804L141.569 37.3644C141.374 36.7511 140.993 36.2308 140.426 35.7941C139.859 35.3573 139.162 35.1343 138.326 35.1343C137.313 35.1343 136.449 35.4874 135.734 36.1936C135.018 36.8905 134.665 37.7826 134.665 38.8697C134.665 39.9476 135.009 40.8304 135.706 41.5273C136.403 42.2149 137.267 42.5587 138.289 42.5587ZM147.153 42.4844V39.418C147.153 38.2286 146.465 37.4295 145.276 37.4295C144.542 37.4295 143.975 37.7547 143.575 38.4144V34.9206H142.851V42.4844H143.575V39.6596C143.575 39.2136 143.715 38.8419 143.993 38.5445C144.272 38.2379 144.625 38.0892 145.053 38.0892C145.945 38.0892 146.428 38.6746 146.428 39.5945V42.4844H147.153ZM153.2 40.2264C153.21 40.1799 153.21 40.0963 153.21 39.9848C153.21 39.2321 153.005 38.6282 152.596 38.1543C152.188 37.6804 151.611 37.4388 150.868 37.4388C150.19 37.4388 149.614 37.6897 149.149 38.2007C148.684 38.7118 148.452 39.3065 148.452 39.9941C148.452 40.7096 148.694 41.3229 149.177 41.8246C149.66 42.3171 150.255 42.568 150.97 42.568C151.862 42.568 152.652 42.1034 153.07 41.2857L152.531 40.9326C152.243 41.5273 151.658 41.9268 150.961 41.9268C150.478 41.9268 150.069 41.7689 149.734 41.4437C149.4 41.1184 149.214 40.7096 149.186 40.2264H153.2ZM149.196 39.6131C149.261 39.1857 149.446 38.8233 149.762 38.5259C150.078 38.2193 150.45 38.0706 150.868 38.0706C151.797 38.0706 152.373 38.6839 152.476 39.6131H149.196ZM154.933 39.9755C154.933 39.4459 155.1 38.9998 155.434 38.6374C155.778 38.2658 156.206 38.0799 156.726 38.0799C157.544 38.0799 158.055 38.5445 158.278 39.1671L158.91 38.8883C158.622 38.0613 157.841 37.4388 156.726 37.4388C156.02 37.4388 155.416 37.6897 154.923 38.1821C154.431 38.6746 154.189 39.2879 154.189 40.0034C154.189 40.7375 154.431 41.3507 154.914 41.8432C155.407 42.3264 156.001 42.568 156.717 42.568C157.841 42.568 158.622 41.9454 158.928 41.0906L158.296 40.8118C158.008 41.5552 157.479 41.9268 156.726 41.9268C156.196 41.9268 155.769 41.7317 155.434 41.3507C155.1 40.9698 154.933 40.5052 154.933 39.9755ZM160.941 42.4844V40.0034H160.969L163.441 42.4844H164.453L161.722 39.7525L164.333 37.5224H163.301L160.941 39.5388V34.9113H160.216V42.4844H160.941ZM170.217 42.5587C170.923 42.5587 171.49 42.3636 171.917 41.964C172.344 41.5645 172.558 41.0813 172.558 40.5237C172.558 40.0684 172.391 39.6596 172.056 39.2972C171.694 38.8976 171.081 38.591 170.226 38.3773C169.12 38.0892 168.674 37.7361 168.674 37.0764C168.674 36.714 168.823 36.4166 169.12 36.1843C169.417 35.952 169.771 35.8405 170.179 35.8405C170.979 35.8405 171.536 36.2308 171.843 37.002L172.493 36.6396C172.149 35.7197 171.35 35.125 170.198 35.125C169.566 35.125 169.027 35.3109 168.581 35.6733C168.135 36.0357 167.912 36.5096 167.912 37.1135C167.912 38.1264 168.6 38.7675 170.087 39.1299C171.202 39.3994 171.778 39.8361 171.778 40.5795C171.778 40.9512 171.629 41.2578 171.322 41.4901C171.025 41.7224 170.653 41.8432 170.217 41.8432C169.278 41.8432 168.73 41.3414 168.358 40.4401L167.698 40.7839C168.144 41.964 168.981 42.5587 170.217 42.5587ZM176.181 42.568C176.906 42.568 177.52 42.3171 178.012 41.8246C178.504 41.3322 178.755 40.7189 178.755 39.9848C178.755 39.2693 178.504 38.6746 178.012 38.1821C177.52 37.6897 176.916 37.4388 176.2 37.4388C175.466 37.4388 174.853 37.6897 174.36 38.1821C173.868 38.6746 173.626 39.2879 173.626 40.022C173.626 40.7282 173.868 41.3322 174.36 41.8246C174.853 42.3171 175.466 42.568 176.181 42.568ZM176.2 41.9268C175.67 41.9268 175.224 41.741 174.881 41.36C174.537 40.9791 174.37 40.5144 174.37 39.9848C174.37 39.4551 174.537 38.9998 174.881 38.6282C175.224 38.2565 175.652 38.0706 176.181 38.0706C176.711 38.0706 177.148 38.2658 177.492 38.6467C177.835 39.0277 178.012 39.4923 178.012 40.022C178.012 40.5516 177.835 40.9976 177.492 41.3693C177.148 41.741 176.72 41.9268 176.2 41.9268ZM180.859 34.9113H180.125V42.4844H180.859V34.9113ZM182.531 37.5224V40.5888C182.531 41.7782 183.218 42.5773 184.408 42.5773C185.16 42.5773 185.727 42.2428 186.108 41.5737V42.4844H186.814V37.5224H186.099V40.3565C186.099 40.8025 185.959 41.1742 185.681 41.4715C185.402 41.7689 185.049 41.9176 184.621 41.9176C183.729 41.9176 183.246 41.3322 183.246 40.4122V37.5224H182.531ZM190.288 42.5215C190.502 42.5215 190.697 42.4937 190.855 42.4472V41.8432C190.753 41.8711 190.604 41.8804 190.409 41.8804C189.87 41.8804 189.6 41.6481 189.6 41.1835V38.1635H190.855V37.5224H189.6V36.0914H188.885V37.5224H187.965V38.1635H188.885V41.2021C188.885 42.0848 189.349 42.5215 190.288 42.5215ZM191.997 35.7476C191.997 36.0449 192.238 36.2865 192.535 36.2865C192.842 36.2865 193.084 36.0449 193.084 35.7476C193.084 35.441 192.842 35.1994 192.535 35.1994C192.238 35.1994 191.997 35.441 191.997 35.7476ZM192.907 37.5224H192.173V42.4844H192.907V37.5224ZM196.827 42.568C197.552 42.568 198.165 42.3171 198.658 41.8246C199.15 41.3322 199.401 40.7189 199.401 39.9848C199.401 39.2693 199.15 38.6746 198.658 38.1821C198.165 37.6897 197.561 37.4388 196.846 37.4388C196.112 37.4388 195.499 37.6897 195.006 38.1821C194.514 38.6746 194.272 39.2879 194.272 40.022C194.272 40.7282 194.514 41.3322 195.006 41.8246C195.499 42.3171 196.112 42.568 196.827 42.568ZM196.846 41.9268C196.316 41.9268 195.87 41.741 195.526 41.36C195.183 40.9791 195.015 40.5144 195.015 39.9848C195.015 39.4551 195.183 38.9998 195.526 38.6282C195.87 38.2565 196.298 38.0706 196.827 38.0706C197.357 38.0706 197.794 38.2658 198.138 38.6467C198.481 39.0277 198.658 39.4923 198.658 40.022C198.658 40.5516 198.481 40.9976 198.138 41.3693C197.794 41.741 197.366 41.9268 196.846 41.9268ZM205.073 42.4844V39.418C205.073 38.2286 204.385 37.4295 203.196 37.4295C202.443 37.4295 201.877 37.764 201.486 38.433V37.5224H200.771V42.4844H201.496V39.6596C201.496 39.2136 201.635 38.8419 201.914 38.5445C202.193 38.2379 202.546 38.0892 202.973 38.0892C203.865 38.0892 204.348 38.6746 204.348 39.5945V42.4844H205.073Z" fill="#5D5D5D"></path></svg>