<svg xmlns="http://www.w3.org/2000/svg" id="Layer_2" viewBox="0 0 42.65 37.28"><defs><style>      .cls-1 {        fill: #00524c;      }    </style></defs><g id="Layer_1-2" data-name="Layer_1"><g><g><path class="cls-1" d="M30.99,32.5H3.17c-1.75,0-3.17-1.42-3.17-3.17V2.6C0,1.17,1.17,0,2.6,0h34.33c1.43,0,2.6,1.17,2.6,2.6v23.42c0,.29-.24.53-.53.53s-.53-.24-.53-.53V2.6c0-.85-.69-1.54-1.54-1.54H2.6c-.85,0-1.54.69-1.54,1.54v26.74c0,1.16.95,2.11,2.11,2.11h27.82c.29,0,.53.24.53.53s-.24.53-.53.53Z"/><path class="cls-1" d="M5.34,5.57c-.49,0-.89-.4-.89-.89s.4-.89.89-.89.89.4.89.89-.4.89-.89.89ZM5.34,4.52c-.09,0-.17.08-.17.17,0,.19.33.18.33,0,0-.09-.08-.17-.17-.17Z"/><path class="cls-1" d="M9.46,5.57c-.49,0-.89-.4-.89-.89s.4-.89.89-.89.89.4.89.89-.4.89-.89.89ZM9.46,4.52c-.09,0-.17.08-.17.17,0,.19.34.19.34,0,0-.09-.08-.17-.17-.17Z"/><path class="cls-1" d="M13.59,5.57c-.49,0-.89-.4-.89-.89s.4-.89.89-.89.89.4.89.89-.4.89-.89.89ZM13.59,4.52c-.09,0-.17.08-.17.17,0,.18.33.19.33,0,0-.09-.08-.17-.17-.17Z"/></g><g><path class="cls-1" d="M34.13,37.28s-.09,0-.14-.02c-.18-.05-.33-.19-.37-.37l-2.93-10.92c-.05-.18,0-.38.14-.51.13-.13.33-.19.51-.14l10.92,2.93c.18.05.33.19.37.37s0,.38-.14.51l-2.56,2.56c-.21.21-.54.21-.75,0-.21-.21-.21-.54,0-.75l1.91-1.91-9.15-2.45,2.45,9.15,1.91-1.91c.21-.21.54-.21.75,0,.21.21.21.54,0,.75l-2.56,2.56c-.1.1-.24.16-.37.16Z"/><path class="cls-1" d="M42,37.16c-.14,0-.27-.05-.37-.16l-3.19-3.19c-.21-.21-.21-.54,0-.75.21-.21.54-.21.75,0l3.19,3.19c.21.21.21.54,0,.75-.1.1-.24.16-.37.16Z"/></g><g><path class="cls-1" d="M19.76,20.55c-.09,0-.18-.02-.26-.07l-7.41-4.28c-.16-.09-.26-.27-.26-.46,0-.19.1-.36.27-.46l7.41-4.2c.16-.09.36-.09.52,0l7.41,4.2c.17.09.27.27.27.46,0,.19-.1.37-.26.46l-7.41,4.28c-.08.05-.17.07-.26.07ZM13.42,15.75l6.34,3.66,6.34-3.66-6.34-3.6-6.34,3.6Z"/><path class="cls-1" d="M19.76,29.11c-.09,0-.18-.02-.26-.07l-7.67-4.43v-8.86c0-.29.24-.53.53-.53s.53.24.53.53v8.25l7.14,4.12c.25.15.34.47.19.72-.1.17-.28.26-.46.26Z"/><path class="cls-1" d="M19.76,29.11c-.18,0-.36-.09-.46-.26-.15-.25-.06-.58.19-.72l7.14-4.12v-8.25c0-.29.24-.53.53-.53s.53.24.53.53v8.86l-7.67,4.43c-.08.05-.17.07-.26.07Z"/><path class="cls-1" d="M19.76,26.23c-.29,0-.53-.24-.53-.53v-5.68c0-.29.24-.53.53-.53s.53.24.53.53v5.68c0,.29-.24.53-.53.53Z"/></g><path class="cls-1" d="M38.99,9.29H.53c-.29,0-.53-.24-.53-.53s.24-.53.53-.53h38.46c.29,0,.53.24.53.53s-.24.53-.53.53Z"/></g></g></svg>