<svg xmlns="http://www.w3.org/2000/svg" id="Layer_2" viewBox="0 0 39.27 34.61"><defs><style>      .cls-1 {        fill: #00524c;      }    </style></defs><g id="Layer_1-2" data-name="Layer_1"><g><path class="cls-1" d="M6.72,28.65c-2.49,0-4.51-2.02-4.51-4.51s2.02-4.51,4.51-4.51,4.51,2.02,4.51,4.51-2.02,4.51-4.51,4.51ZM6.72,20.68c-1.9,0-3.45,1.55-3.45,3.45s1.55,3.45,3.45,3.45,3.45-1.55,3.45-3.45-1.55-3.45-3.45-3.45Z"/><path class="cls-1" d="M12.91,34.24c-.21,0-.41-.13-.49-.34-.62-1.6-2.19-2.67-3.91-2.67h-3.58c-1.72,0-3.29,1.08-3.9,2.67-.1.27-.41.41-.68.3-.27-.11-.41-.41-.3-.68.77-2,2.74-3.35,4.89-3.35h3.58c2.15,0,4.12,1.35,4.89,3.35.11.27-.03.58-.3.68-.06.02-.13.04-.19.04Z"/><path class="cls-1" d="M32.55,29.02c-2.49,0-4.51-2.02-4.51-4.51s2.02-4.51,4.51-4.51,4.51,2.02,4.51,4.51-2.02,4.51-4.51,4.51ZM32.55,21.05c-1.9,0-3.45,1.55-3.45,3.45s1.55,3.45,3.45,3.45,3.45-1.55,3.45-3.45-1.55-3.45-3.45-3.45Z"/><path class="cls-1" d="M38.74,34.61c-.21,0-.41-.13-.49-.34-.62-1.6-2.19-2.68-3.91-2.68h-3.58c-1.72,0-3.29,1.08-3.9,2.67-.11.27-.41.41-.68.3-.27-.11-.41-.41-.3-.68.77-2,2.74-3.35,4.89-3.35h3.58c2.15,0,4.12,1.35,4.89,3.35.11.27-.03.58-.3.68-.06.02-.13.04-.19.04Z"/><path class="cls-1" d="M12.96,19.61c-.11,0-.22-.02-.33-.07-.32-.13-.53-.44-.53-.79v-3.33h-5.43c-1.78,0-3.23-1.45-3.23-3.23V3.23c0-1.78,1.45-3.23,3.23-3.23h14.92c1.78,0,3.23,1.45,3.23,3.23v3.06c0,.29-.24.53-.53.53s-.53-.24-.53-.53v-3.06c0-1.2-.97-2.17-2.17-2.17H6.66c-1.2,0-2.17.97-2.17,2.17v8.96c0,1.2.97,2.17,2.17,2.17h5.63c.47,0,.86.39.86.86v3.04l3.65-3.65c.16-.16.38-.25.61-.25h1.19c.29,0,.53.24.53.53s-.24.53-.53.53h-1.1l-3.93,3.93c-.16.16-.38.25-.61.25Z"/><path class="cls-1" d="M18.56,8.24h-8.88c-.29,0-.53-.24-.53-.53s.24-.53.53-.53h8.88c.29,0,.53.24.53.53s-.24.53-.53.53Z"/><path class="cls-1" d="M27.3,19.61c-.19,0-.37-.07-.5-.21l-2.16-2.16h-2.22c-1.14,0-2.06-.92-2.06-2.06v-5.08c0-1.14.92-2.06,2.06-2.06h8.45c1.14,0,2.06.92,2.06,2.06v5.08c0,1.14-.92,2.06-2.06,2.06h-2.85v1.65c0,.29-.17.55-.44.66-.09.04-.18.05-.27.05ZM22.41,9.1c-.55,0-1,.45-1,1v5.08c0,.55.45,1,1,1h2.36c.19,0,.37.08.51.21l1.67,1.68v-1.17c0-.39.32-.71.72-.71h3.19c.55,0,1-.45,1-1v-5.08c0-.55-.45-1-1-1h-8.45ZM24.78,17.24h0,0Z"/><path class="cls-1" d="M19.18,28.91c-.14,0-.27-.05-.37-.16l-1.96-1.96c-.21-.21-.21-.54,0-.75.21-.21.54-.21.75,0l1.58,1.58,2.82-2.82c.21-.21.54-.21.75,0,.21.21.21.54,0,.75l-3.2,3.2c-.1.1-.24.16-.37.16Z"/><path class="cls-1" d="M19.63,34.33c-.1,0-.2-.03-.29-.09l-.55-.36c-1.11-.73-2.94-1.96-3.66-2.48-.98-.73-1.57-2-1.57-3.4v-5.94c0-.29.24-.53.53-.53,2.31,0,5.19-2.21,5.22-2.23.19-.15.46-.15.65,0,.03.02,2.91,2.23,5.22,2.23.29,0,.53.24.53.53v5.94c0,1.4-.59,2.67-1.57,3.4-.72.53-2.55,1.75-3.58,2.43l-.63.42c-.09.06-.19.09-.29.09ZM14.62,22.55v5.44c0,1.07.42,2.02,1.14,2.55.52.38,1.77,1.23,3.54,2.4l.34.22.26-.17c1.84-1.22,3.1-2.07,3.61-2.45.71-.53,1.14-1.48,1.14-2.55v-5.44c-2.05-.22-4.21-1.62-5.01-2.19-.8.57-2.96,1.97-5.01,2.19Z"/></g></g></svg>