<svg xmlns="http://www.w3.org/2000/svg" id="Layer_2" viewBox="0 0 45.87 42.67"><defs><style>      .cls-1 {        fill: #00524c;      }    </style></defs><g id="Layer_1-2" data-name="Layer_1"><g><g><path class="cls-1" d="M22.88,14.32c-.13,0-.25-.05-.35-.13l-2.14-1.91c-.22-.19-.24-.53-.04-.75.19-.22.53-.24.75-.04l1.73,1.54,2.74-3.35c.19-.23.52-.26.74-.07.23.18.26.52.08.74l-3.09,3.78c-.09.11-.22.18-.37.19-.01,0-.03,0-.04,0Z"/><path class="cls-1" d="M23.05,23.64l-.15-.04C10.86,20.03,12.65,3.6,12.67,3.44l.06-.53.53.06c5.76.68,9.4-2.61,9.44-2.64l.36-.33.36.33s3.69,3.32,9.44,2.64l.53-.06.06.53c.02.17,1.81,16.59-10.23,20.16l-.15.04ZM13.68,4.08c-.09,1.22-.2,4.41.56,7.82,1.27,5.64,4.23,9.22,8.82,10.63,4.58-1.41,7.55-4.99,8.82-10.63.77-3.41.65-6.61.56-7.82-4.94.4-8.31-1.83-9.38-2.67-1.07.84-4.43,3.07-9.38,2.67Z"/></g><g><g><path class="cls-1" d="M8.91,23.88c-.16,0-.31-.07-.42-.2l-1.08-1.39c-.05-.07-.09-.15-.1-.23-.15-.83-.4-2.3-.66-3.81-.28-1.64-.58-3.34-.75-4.33-.04-.25-.18-.46-.39-.6-.21-.14-.46-.19-.72-.14l-1.44.28c-.29.06-.56-.13-.62-.42-.06-.29.13-.56.42-.62l1.44-.28c.54-.11,1.08,0,1.53.31.44.3.74.76.83,1.29.18.99.47,2.69.75,4.33.25,1.43.49,2.83.64,3.68l1,1.29c.18.23.14.56-.09.74-.1.08-.21.11-.32.11Z"/><path class="cls-1" d="M11.05,22.97c-.17,0-.33-.08-.43-.22l-1.08-1.52c-.04-.06-.07-.13-.09-.21-.19-1.04-.38-2.16-.57-3.34-.16-1.01-.34-2.07-.53-3.17-.04-.25-.18-.46-.39-.6-.21-.14-.47-.19-.72-.14l-.78.15c-.28.06-.56-.13-.62-.42-.06-.29.13-.57.42-.62l.78-.15c.54-.11,1.08,0,1.53.31.44.3.74.76.83,1.29.2,1.1.37,2.17.53,3.19.18,1.13.36,2.2.54,3.2l1.01,1.42c.17.24.11.57-.12.74-.09.07-.2.1-.31.1Z"/><path class="cls-1" d="M12.14,22.02s-.64-3.36-1.06-5.75c-.04-.25-.18-.46-.38-.6-.21-.14-.47-.2-.73-.14l-.61.12c-.29.06-.56-.13-.62-.42-.06-.29.13-.56.42-.62l.62-.12c.54-.11,1.08,0,1.53.31.44.3.73.76.83,1.29.42,2.38,1.06,5.73,1.06,5.73l-1.04.2Z"/><path class="cls-1" d="M13.75,42.4c-.29,0-.53-.24-.53-.53v-5.29c-.58-1.14-1.92-1.91-4.09-2.38l-.67-.14c-1.66-.33-3.37-.68-4.67-1.85-.79-.72-1.29-1.65-1.71-2.46-.78-1.53-1.45-3.14-2-4.76-.21-.61-.04-1.25.44-1.67.48-.43,1.15-.52,1.73-.23.92.44,2.13,1.24,2.72,2.52.07.15.13.3.2.46.46,1.08.74,1.63,1.76,1.44.18-.04.37-.11.59-.21,2.67-1.22,6.07-.68,8.26,1.32.22.2.23.53.04.75-.2.22-.53.23-.75.03-1.89-1.72-4.81-2.18-7.1-1.14-.25.11-.52.23-.82.29-1.92.38-2.53-1.09-2.94-2.06-.06-.15-.12-.29-.19-.43-.36-.78-1.15-1.49-2.22-2.01-.29-.14-.51.02-.58.07-.06.05-.24.24-.14.54.53,1.58,1.19,3.14,1.94,4.62.37.73.82,1.56,1.48,2.16,1.08.98,2.65,1.29,4.16,1.6l.69.14c2.59.55,4.18,1.55,4.88,3.07.03.07.05.14.05.22v5.42c0,.29-.24.53-.53.53Z"/><path class="cls-1" d="M20.76,42.67c-.29,0-.53-.24-.53-.53v-10.04c-.14-1.51-.72-3.2-1.59-4.59-1.5-2.4-3.69-2.89-5.81-3.37-.25-.06-.49-.11-.73-.17-.28-.07-.46-.35-.39-.64.07-.29.35-.46.64-.39.23.06.47.11.72.17,2.11.47,4.74,1.06,6.47,3.84.95,1.52,1.59,3.38,1.75,5.1v10.09c0,.29-.23.53-.53.53Z"/><path class="cls-1" d="M6.37,24.91c-.15,0-.3-.06-.4-.19l-1.31-1.56c-.06-.07-.1-.16-.12-.26l-1.49-9.21c-.03-.2-.14-.38-.31-.5-.17-.12-.38-.16-.59-.12-.44.08-.75.5-.7.94l1.23,9.39c.04.29-.17.55-.46.59-.3.04-.56-.17-.59-.46L.39,14.15c-.12-1,.57-1.93,1.56-2.11.49-.09.99.01,1.39.3.4.28.66.7.74,1.19l1.47,9.07,1.22,1.45c.19.22.16.56-.06.75-.1.08-.22.12-.34.12Z"/></g><g><path class="cls-1" d="M36.96,23.88c-.11,0-.23-.04-.32-.11-.23-.18-.27-.51-.09-.74l1-1.29c.15-.85.39-2.25.64-3.68.28-1.64.58-3.34.75-4.33.09-.53.39-.99.83-1.29.45-.3.99-.41,1.53-.31l1.44.28c.29.06.47.33.42.62-.06.29-.33.47-.62.42l-1.44-.28c-.26-.05-.52,0-.72.14-.2.14-.34.35-.39.6-.18.99-.47,2.68-.75,4.33-.26,1.51-.51,2.98-.66,3.81-.02.08-.05.17-.1.23l-1.09,1.39c-.1.13-.26.2-.42.2Z"/><path class="cls-1" d="M34.81,22.97c-.11,0-.21-.03-.31-.1-.24-.17-.29-.5-.12-.74l1.01-1.42c.18-1,.36-2.07.54-3.2.17-1.02.34-2.08.53-3.19.09-.53.39-.99.83-1.29.45-.3.99-.42,1.53-.31l.78.15c.29.06.47.33.42.62-.06.29-.33.47-.62.42l-.78-.15c-.26-.05-.52,0-.73.14-.2.14-.34.35-.39.6-.19,1.1-.37,2.16-.53,3.17-.19,1.18-.37,2.3-.57,3.34-.01.08-.04.15-.09.21l-1.08,1.52c-.1.14-.27.22-.43.22Z"/><path class="cls-1" d="M33.73,22.02l-1.04-.2s.64-3.36,1.06-5.73c.09-.53.39-.99.83-1.29.45-.3.99-.41,1.53-.31l.62.12c.29.06.47.33.42.62-.06.29-.34.47-.62.42l-.62-.12c-.26-.05-.52,0-.72.14-.2.14-.34.35-.38.6-.42,2.38-1.06,5.75-1.06,5.75Z"/><path class="cls-1" d="M32.12,42.4c-.29,0-.53-.24-.53-.53v-5.42c0-.08.02-.15.05-.22.7-1.52,2.29-2.52,4.88-3.07l.69-.14c1.52-.3,3.08-.62,4.16-1.6.65-.6,1.1-1.43,1.48-2.16.75-1.49,1.41-3.04,1.94-4.62.1-.3-.08-.49-.14-.54-.06-.05-.28-.22-.58-.08-1.08.52-1.86,1.23-2.22,2.01-.06.14-.13.28-.19.43-.41.97-1.03,2.44-2.94,2.06-.3-.06-.57-.17-.82-.29-2.3-1.05-5.22-.58-7.1,1.14-.21.2-.55.18-.75-.03s-.18-.55.04-.75c2.19-1.99,5.58-2.54,8.25-1.32.22.1.41.18.59.21,1.02.2,1.31-.35,1.76-1.43.07-.16.13-.31.2-.46.59-1.28,1.81-2.07,2.72-2.52.58-.28,1.25-.19,1.73.24.48.42.65,1.06.44,1.67-.55,1.63-1.22,3.23-2,4.76-.41.82-.92,1.75-1.71,2.46-1.29,1.18-3.01,1.52-4.66,1.85l-.68.14c-2.17.46-3.51,1.24-4.09,2.38v5.29c0,.29-.24.53-.53.53Z"/><path class="cls-1" d="M25.11,42.67c-.29,0-.53-.24-.53-.53v-10.04c.16-1.77.8-3.63,1.75-5.15,1.73-2.77,4.36-3.36,6.47-3.84.24-.05.48-.11.72-.17.28-.07.57.11.64.39.07.28-.11.57-.39.64-.24.06-.48.11-.73.17-2.12.48-4.3.97-5.81,3.37-.87,1.39-1.45,3.08-1.59,4.64v10c0,.29-.23.53-.53.53Z"/><path class="cls-1" d="M39.5,24.91c-.12,0-.24-.04-.34-.12-.22-.19-.25-.52-.06-.75l1.22-1.45,1.47-9.07c.08-.49.34-.91.74-1.19.4-.28.9-.39,1.39-.3.99.18,1.68,1.11,1.56,2.11l-1.23,9.41c-.04.29-.3.49-.59.46-.29-.04-.49-.3-.46-.59l1.23-9.4c.05-.43-.27-.85-.7-.94-.21-.04-.42,0-.59.12-.17.12-.27.29-.31.5l-1.49,9.21c-.02.09-.06.18-.12.26l-1.31,1.56c-.1.12-.25.19-.41.19Z"/></g></g></g></g></svg>