<svg xmlns="http://www.w3.org/2000/svg" id="Layer_2" viewBox="0 0 41.81 39.12"><defs><style>      .cls-1 {        fill: #00524c;      }    </style></defs><g id="Layer_1-2" data-name="Layer_1"><g><g><path class="cls-1" d="M20.53,20.37c-.29,0-.53-.24-.53-.53,0-.94-.42-1.81-1.14-2.41l-2.76-2.27c-.23-.19-.26-.52-.07-.74.19-.22.52-.26.74-.07l2.76,2.27c.97.8,1.52,1.97,1.52,3.23,0,.29-.24.53-.53.53Z"/><path class="cls-1" d="M11.41,14.32c-3.45,0-6.26-2.81-6.26-6.26S7.96,1.81,11.41,1.81s6.26,2.81,6.26,6.26-2.81,6.26-6.26,6.26ZM11.41,2.87c-2.87,0-5.2,2.33-5.2,5.2s2.33,5.2,5.2,5.2,5.2-2.33,5.2-5.2-2.33-5.2-5.2-5.2Z"/></g><g><path class="cls-1" d="M30.9,8.17c-.09,0-.18-.02-.26-.07l-6.16-3.56c-.16-.09-.26-.27-.26-.46s.1-.36.26-.46L30.63.07c.16-.09.37-.09.53,0l6.16,3.56c.16.09.26.27.26.46s-.1.36-.26.46l-6.16,3.56c-.08.05-.17.07-.26.07ZM25.79,4.09l5.1,2.95,5.1-2.95-5.1-2.95-5.1,2.95Z"/><path class="cls-1" d="M30.9,15.36l-6.69-3.86v-7.42c0-.29.24-.53.53-.53s.53.24.53.53v6.81l5.63,3.25,5.63-3.25v-6.81c0-.29.24-.53.53-.53s.53.24.53.53v7.42l-6.69,3.86Z"/><path class="cls-1" d="M30.9,12.89c-.29,0-.53-.24-.53-.53v-4.72c0-.29.24-.53.53-.53s.53.24.53.53v4.72c0,.29-.24.53-.53.53Z"/></g><path class="cls-1" d="M32.33,32.54h-7.44c-.29,0-.53-.24-.53-.53s.24-.53.53-.53h7.12l6.71-12.77h-14.99l-7.9,13.57c-.09.16-.27.26-.46.26H5.57c-2.1,0-3.8-1.71-3.8-3.8v-8.9c0-1.25.56-2.43,1.52-3.23l2.76-2.27c.23-.18.56-.15.74.07.19.23.15.56-.07.74l-2.76,2.27c-.72.59-1.14,1.47-1.14,2.41v8.9c0,1.51,1.23,2.75,2.74,2.75h9.51l7.9-13.57c.09-.16.27-.26.46-.26h16.17c.19,0,.36.1.45.26.1.16.1.36.02.52l-7.27,13.83c-.09.17-.27.28-.47.28Z"/><path class="cls-1" d="M41.28,39.12H.53c-.29,0-.53-.24-.53-.53s.24-.53.53-.53h40l-3.09-8.67h-3.46c-.29,0-.53-.24-.53-.53s.24-.53.53-.53h3.83c.22,0,.42.14.5.35l3.47,9.73c.06.16.03.34-.07.48-.1.14-.26.22-.43.22Z"/></g></g></svg>