<svg viewBox="0 0 833 598" xmlns="http://www.w3.org/2000/svg">
        <defs>
            <!-- Gradient definitions -->
            <linearGradient id="paint0_linear_1180_2132" x1="319.933" y1="249.727" x2="838.455" y2="564.039" gradientUnits="userSpaceOnUse">
                <stop offset="0.0328661" stop-color="#00524C"/>
                <stop offset="0.481148" stop-color="#FCB336"/>
                <stop offset="0.938735" stop-color="#EB7923"/>
            </linearGradient>
            <linearGradient id="paint1_linear_1180_2132" x1="94.8093" y1="0" x2="310.091" y2="186.988" gradientUnits="userSpaceOnUse">
                <stop offset="0" stop-color="#EB7923"/>
                <stop offset="0.520951" stop-color="#FCB336"/>
                <stop offset="1" stop-color="#00524C"/>
            </linearGradient>
    
            <!-- Clip paths for progressive reveal -->
            <clipPath id="revealClip0">
                <rect x="0" y="0" width="0" height="598">
                    <animate attributeName="width" from="0" to="833" dur="5s" fill="freeze" keyTimes="0;1" values="0;833"/>
                </rect>
            </clipPath>
            <clipPath id="revealClip1">
                <rect x="0" y="0" width="0" height="598">
                    <animate attributeName="width" from="0" to="833" dur="5s" fill="freeze" keyTimes="0;1" values="0;833"/>
                </rect>
            </clipPath>
        </defs>
        <!-- First Path with gradient fill and individual clip path applied -->
        <path d="M481.224 238.328C467.042 238.328 453.651 241.678 441.782 247.613C412.75 262.117 392.793 292.101 392.793 326.759L392.793 373.435C369.461 371.568 351.1 347.63 351.088 323.816L351.088 243.249L307.997 243.249L307.997 323.804C307.997 356.063 325.283 388.718 351.088 404.161C363.378 411.505 377.585 415.981 392.793 416.6L392.793 416.686L435.884 416.686L435.884 326.734C435.884 318.611 438.047 311.019 441.782 304.416C448.483 292.583 460.353 284.101 474.325 281.962C476.588 281.616 478.875 281.381 481.237 281.381C482.461 281.381 483.673 281.468 484.884 281.566C508.216 283.421 526.578 302.92 526.578 326.734L526.578 407.116L526.615 446.534C526.763 521.315 582.737 597.765 673.147 598C720.009 597.975 773.028 577.265 829.089 529.822C842.059 518.817 854.856 508.58 867.456 499.096L867.456 446.139C845.62 461.112 823.586 478.15 801.293 496.957C750.5 539.899 706.964 554.984 673.147 554.959C609.704 554.848 570.076 498.329 569.656 443.344L569.656 326.722C569.668 279.106 532.03 240.294 484.884 238.377L484.884 238.291L481.237 238.291L481.224 238.328Z" fill="url(#paint0_linear_1180_2132)" clip-path="url(#revealClip0)"/>
        <!-- Second Path with gradient fill and individual clip path applied -->
        <path d="M39.4512 51.7466C65.6888 71.3939 97.1565 80.692 127.178 83.7955C186.132 90.8062 247.114 84.7229 277.753 98.3362C297.042 107.634 306.699 116.203 308.059 154.496L308.059 200.9C308.059 212.783 317.69 222.414 329.573 222.414C341.455 222.414 351.087 212.783 351.087 200.9L351.087 154.496C351.458 117.946 339.328 89.0752 317.32 71.9503C295.57 54.9243 269.098 49.8054 242.168 47.1841C188.246 42.6463 127.116 47.7281 85.6451 29.2308C70.7242 22.4716 57.8977 13.7714 47.4134 0C44.3718 0 39.4512 0 32.07 0C11.1569 0 5.00602 0 0 0C0.0918264 13.5958 18.0498 34.7884 39.4512 51.7466Z" fill="url(#paint1_linear_1180_2132)" clip-path="url(#revealClip1)"/>
    </svg>