<svg xmlns="http://www.w3.org/2000/svg" width="106" height="105" viewBox="0 0 106 105" fill="none"><path d="M15.9567 62.8799V44.2499H25.1907C27.9987 44.2499 30.1587 46.2479 30.1587 49.0289C30.1587 50.7299 29.3217 52.2419 28.1337 52.9709C29.8887 53.6459 31.1037 55.6169 31.1037 57.8309C31.1037 60.7739 28.8627 62.8799 25.8387 62.8799H15.9567ZM24.1377 48.0299H20.0067V51.5399H24.1377C25.1097 51.5399 25.8657 50.7839 25.8657 49.7849C25.8657 48.7589 25.1367 48.0299 24.1377 48.0299ZM24.8127 55.0769H20.0067V59.0999H24.8127C25.9467 59.0999 26.8107 58.2359 26.8107 57.1019C26.8107 55.9679 25.9467 55.0769 24.8127 55.0769ZM32.3318 62.8799V44.2499H37.5158L42.7538 53.8619L48.0188 44.2499H53.1488V62.8799H48.9638V50.4599L43.9148 59.7479H41.5388L36.5168 50.4599V62.8799H32.3318ZM55.615 62.8799V44.2499H59.827L67.576 55.6439V44.2499H71.761V62.8799H67.522L59.8 51.4859V62.8799H55.615ZM74.205 62.8799V44.2499H82.818C86.544 44.2499 89.352 46.9769 89.352 50.5949C89.352 54.2129 86.544 56.9399 82.818 56.9399H78.39V62.8799H74.205ZM82.737 48.1919H78.39V52.9979H82.737C84.06 52.9979 85.059 51.9449 85.059 50.5949C85.059 49.2179 84.06 48.1919 82.737 48.1919Z" fill="#00524C"/><path d="M101.5 52.5C101.5 79.2858 79.7858 101 53 101C26.2142 101 4.5 79.2858 4.5 52.5C4.5 25.7142 26.2142 4 53 4C79.7858 4 101.5 25.7142 101.5 52.5Z" stroke="url(#paint0_linear_2371_1997)" stroke-width="8"/><defs><linearGradient id="paint0_linear_2371_1997" x1="-0.00340419" y1="55.0723" x2="104.996" y2="55.0723" gradientUnits="userSpaceOnUse"><stop stop-color="#00524C"/><stop offset="0.36" stop-color="#9DD0AE"/><stop offset="0.67" stop-color="#CAD500"/><stop offset="1" stop-color="#FAB526"/></linearGradient></defs></svg>