<svg xmlns="http://www.w3.org/2000/svg" viewBox="0 0 1728 507" fill="none">
        <defs>
            <!-- Gradient definitions -->
            <linearGradient id="paint0_linear_1516_6437" x1="819" y1="37" x2="922" y2="520.5" gradientUnits="userSpaceOnUse">
                <stop offset="0.409514" stop-color="#E97306"/>
                <stop offset="0.769036" stop-color="#00524C"/>
            </linearGradient>
            
            <!-- Clip path for progressive reveal -->
            <clipPath id="revealClip">
                <rect x="0" y="0" width="0" height="507">
                    <animate attributeName="width" from="0" to="1728" dur="5s" fill="freeze"/>
                </rect>
            </clipPath>
        </defs>
        
        <!-- Mask and path with gradient fill and clip path applied -->
        <mask id="mask0_1516_6437" style="mask-type:alpha" maskUnits="userSpaceOnUse" x="0" y="0" width="1728" height="507">
            <rect width="1728" height="506.323" fill="#F6F6F6"/>
        </mask>
        <g mask="url(#mask0_1516_6437)">
            <path fill-rule="evenodd" clip-rule="evenodd" d="M726.665 76.1903C746.658 68.5247 771.706 70.5336 789.007 89.296C798.123 99.1832 803.185 112.14 803.185 125.589V183.442C803.185 191.062 797.008 197.239 789.387 197.239C781.767 197.239 775.59 191.062 775.59 183.442V125.589C775.59 119.072 773.137 112.793 768.719 108.002C760.714 99.3203 748.43 97.3993 736.544 101.957C724.575 106.546 715.612 116.806 714.442 129.248C710.164 174.762 701.033 227.326 681.753 270.027C662.5 312.666 631.597 348.464 582.7 353.595C472.332 365.176 394.467 316.172 343.279 249.37C310.619 206.749 257.555 183.977 212.254 202.751L-69.0399 319.328L-79.605 293.835L201.688 177.258C262.557 152.032 327.94 183.983 365.183 232.585C411.686 293.273 480.758 336.545 579.82 326.15C614.563 322.504 639.155 297.311 656.602 258.671C674.021 220.092 682.792 171.087 686.968 126.665C689.292 101.939 706.755 83.8242 726.665 76.1903ZM775.59 269.881V217.124H803.185V269.881C803.185 285.923 814.009 299.437 828.752 303.519V275.156C828.752 241.985 855.642 215.095 888.813 215.095C921.983 215.095 948.873 241.985 948.873 275.156V354.752C948.873 393.719 980.462 425.308 1019.43 425.308C1042.11 425.308 1063.72 414.158 1078.91 395.934C1108.9 359.953 1149.94 318.469 1194.06 289.807C1237.63 261.508 1287.76 243.486 1333.75 261.497C1362.93 272.923 1395.02 290.815 1427.67 309.02L1427.67 309.021L1430.7 310.709C1464.79 329.711 1499.78 349.071 1534.79 363.395C1569.81 377.728 1603.79 386.556 1635.73 385.27C1667.2 384.003 1697.37 372.904 1725.41 345.983L1744.52 365.889C1711.49 397.608 1674.85 411.312 1636.84 412.843C1599.29 414.355 1561.1 403.978 1524.33 388.935C1487.55 373.882 1451.14 353.695 1417.26 334.812L1415.24 333.684L1415.24 333.682C1381.75 315.017 1351.09 297.922 1323.69 287.192C1290.55 274.217 1250.59 285.996 1209.1 312.949C1168.16 339.539 1129.15 378.761 1100.1 413.603C1080.36 437.288 1051.31 452.904 1019.43 452.904C965.222 452.904 921.278 408.96 921.278 354.752V275.156C921.278 257.226 906.743 242.691 888.813 242.691C870.882 242.691 856.347 257.226 856.347 275.156V331.97H843.767V332.376H838.085C835.663 332.376 833.273 332.238 830.923 331.97H828.752V331.684C798.663 327.178 775.59 301.224 775.59 269.881Z" fill="url(#paint0_linear_1516_6437)" clip-path="url(#revealClip)"/>
        </g>
    </svg>